<svg width="50" height="50" fill="none" xmlns="http://www.w3.org/2000/svg"><path d="M47.233 43.4h-2.3V28.833a.767.767 0 00-1.394-.439L32.806 43.727a.767.767 0 00.627 1.206H43.4v2.3a.767.767 0 001.533 0v-2.3h2.3a.767.767 0 000-1.533zm-3.833 0h-8.495L43.4 31.265V43.4z" fill="#CDB26D"/><path d="M33.433 46.467h-9.076l8.438-9.937a.81.81 0 00.054-.071 5.333 5.333 0 00-1.204-7.24 6.133 6.133 0 00-9.712 4.981.767.767 0 001.534 0 4.6 4.6 0 017.283-3.737 3.785 3.785 0 01.843 5.11l-9.477 11.164A.767.767 0 0022.7 48h10.733a.767.767 0 000-1.533z" fill="#CDB26D"/><path d="M22.717 42.648a.767.767 0 00-.737-.795c-10.003-.371-18.03-8.385-18.42-18.386H6.6a.767.767 0 000-1.534H3.56c.384-9.983 8.39-17.989 18.373-18.372v2.272a.767.767 0 001.534 0V3.561c9.847.38 17.795 8.178 18.363 18.017l-2.99-2.99a.767.767 0 00-1.084 1.084l4.28 4.28c.08.097.184.172.301.22.03.008.06.016.092.021a.763.763 0 00.162.04h.044a.735.735 0 00.172-.034.707.707 0 00.093-.018.755.755 0 00.277-.173l4.338-4.336a.767.767 0 00-1.084-1.084l-3.065 3.062C42.82 10.66 33.757 2.027 22.754 2.01c-.019 0-.035-.01-.054-.01-.02 0-.035.01-.054.01-11.39.016-20.62 9.246-20.635 20.636 0 .019-.011.035-.011.054 0 .02.01.035.01.054.02 11.11 8.812 20.218 19.913 20.631h.028c.412 0 .75-.325.766-.737z" fill="#CDB26D"/><path d="M33 12.4c-.3-.3-.785-.3-1.084 0l-8.239 8.238a2.4 2.4 0 00-1.955 0l-3.901-3.901a.767.767 0 00-1.084 1.084l3.893 3.893a2.296 2.296 0 003.696 2.613c.692-.686.87-1.737.443-2.612L33 13.484c.3-.3.3-.785 0-1.084zm-9.758 10.842a.784.784 0 01-1.084 0 .767.767 0 111.084 0z" fill="#CDB26D"/></svg>