<svg width="50" height="50" fill="none" xmlns="http://www.w3.org/2000/svg"><path d="M47.664 44.026a8.568 8.568 0 00-6.94-5.582l-6.349-.846V37.5h-.17a9.388 9.388 0 005.6-7.813h.039a3.128 3.128 0 003.125-3.125v-8.516a5.656 5.656 0 00-4.296-5.477l-.509-.51A11.752 11.752 0 0029.8 8.594c-2.017 0-3.916.51-5.58 1.404V3.125A2.347 2.347 0 0021.875.781H3.125A2.347 2.347 0 00.781 3.125V12.5a2.347 2.347 0 002.344 2.344H9.79l3.353 4.023a1.84 1.84 0 001.417.664 1.848 1.848 0 001.846-1.845v-2.842h2.967a11.755 11.755 0 00-1.404 5.58v6.139a3.128 3.128 0 003.125 3.125h.04a9.388 9.388 0 005.6 7.812h-.172v.098l-3.906.52v-1.954l-2.002-.696a9.423 9.423 0 00-.627-1.516l.924-1.906-2.995-2.995-1.907.924a9.52 9.52 0 00-1.515-.627l-.697-2.004H9.6l-.696 2.002a9.424 9.424 0 00-1.516.627l-1.906-.924-2.995 2.995.924 1.907a9.527 9.527 0 00-.628 1.515l-2.003.697V40.4l2.003.696a9.42 9.42 0 00.627 1.516l-.924 1.906 2.995 2.995 1.906-.924c.485.252.992.462 1.516.628l.697 2.003h39.952l-1.889-5.193zm-19.539-6.053c.75.194 1.533.308 2.344.308.81 0 1.593-.114 2.343-.308v.034l-2.343 2.929-2.344-2.929v-.034zm1.034 3.828l-2.883.96-1.134-3.399 1.867-.249 2.15 2.688zm4.77-2.687l1.866.25-1.133 3.399-2.883-.961 2.15-2.688zm5.915-10.989V25c.861 0 1.562.7 1.562 1.563 0 .861-.7 1.562-1.562 1.562zm-25-14.844v4.405c0 .24-.348.366-.5.18l-3.821-4.585H3.125a.782.782 0 01-.781-.781V3.125c0-.431.35-.781.781-.781h18.75c.431 0 .781.35.781.781v7.813h.105a11.927 11.927 0 00-2.448 2.448v-.105h-5.47zm4.687 13.281c0-.861.701-1.562 1.563-1.562v3.125c-.862 0-1.563-.7-1.563-1.563zm1.563-5.468v2.343c-.572 0-1.101.166-1.563.435v-3.449c0-5.66 4.607-10.267 10.268-10.267 2.742 0 5.321 1.068 7.26 3.008l.837.837.232.047c1.9.38 3.278 2.06 3.278 3.998v5.827a3.085 3.085 0 00-1.562-.436v-2.343h-.782c-2.846 0-5.637-.98-7.86-2.757l-.733-.588-.734.588a12.628 12.628 0 01-7.86 2.757h-.781zm1.562 7.812v-6.272a14.212 14.212 0 007.813-2.887 14.207 14.207 0 007.812 2.887v6.272c0 4.308-3.504 7.813-7.812 7.813s-7.813-3.505-7.813-7.813zm-11.944 18.75l-.6-1.726-.4-.107a7.749 7.749 0 01-1.908-.79l-.36-.208-1.643.797-1.424-1.424.797-1.643-.208-.36a7.82 7.82 0 01-.79-1.907l-.106-.4-1.726-.6v-2.014l1.726-.599.107-.4a7.75 7.75 0 01.79-1.909l.208-.359-.797-1.644 1.424-1.423 1.643.797.36-.209a7.823 7.823 0 011.908-.79l.4-.106.599-1.726h2.014l.599 1.727.4.106a7.75 7.75 0 011.909.79l.359.209 1.644-.797 1.423 1.423-.797 1.644.209.36c.344.593.61 1.234.79 1.907l.106.4 1.726.6v1.052l-.88.117a8.605 8.605 0 00-2.3.64c.034-.265.055-.532.055-.803a6.257 6.257 0 00-6.25-6.25 6.257 6.257 0 00-6.25 6.25 6.257 6.257 0 006.25 6.25c.489 0 .969-.072 1.437-.183l-1.203 3.308h-1.241zm3.46-5.393a4.658 4.658 0 01-2.453.706A4.692 4.692 0 017.03 38.28a4.692 4.692 0 014.688-4.687 4.692 4.692 0 014.687 4.687c0 .695-.158 1.361-.454 1.99a8.557 8.557 0 00-1.78 1.992zm-.556 5.393l1.125-3.097a7.011 7.011 0 015.68-4.567l3.145-.42 1.72 5.165 5.183-1.726 5.182 1.727 1.72-5.165 3.146.42a7.01 7.01 0 015.68 4.567l1.125 3.096H13.616z" fill="#CDB26D"/><path d="M26.563 25.781a.781.781 0 100-1.562.781.781 0 000 1.562zM34.375 25.781a.781.781 0 100-1.562.781.781 0 000 1.562zM35.938 28.906h-1.563a3.91 3.91 0 01-3.906 3.907 3.91 3.91 0 01-3.907-3.907H25a5.476 5.476 0 005.469 5.469 5.476 5.476 0 005.468-5.469zM6.25 5.469a2.347 2.347 0 00-2.344 2.343 2.347 2.347 0 002.344 2.344 2.347 2.347 0 002.344-2.344A2.347 2.347 0 006.25 5.47zm0 3.125a.782.782 0 110-1.563.782.782 0 010 1.563zM12.5 5.469a2.347 2.347 0 00-2.344 2.343 2.347 2.347 0 002.344 2.344 2.347 2.347 0 002.344-2.344A2.347 2.347 0 0012.5 5.47zm0 3.125a.782.782 0 110-1.563.782.782 0 010 1.563zM21.094 7.813a2.347 2.347 0 00-2.344-2.344 2.347 2.347 0 00-2.344 2.343 2.347 2.347 0 002.344 2.344 2.347 2.347 0 002.344-2.344zm-2.344.78a.782.782 0 110-1.562.782.782 0 010 1.563z" fill="#CDB26D"/></svg>