<svg width="50" height="50" viewBox="0 0 50 50" fill="none" xmlns="http://www.w3.org/2000/svg">
<g clip-path="url(#clip0)">
<path d="M43.9919 22.8209C43.9873 22.7703 43.9773 22.7204 43.9618 22.672C43.9518 22.6288 43.9378 22.5866 43.92 22.5458C43.8995 22.5061 43.8749 22.4684 43.8467 22.4336C43.8185 22.3923 43.7857 22.3542 43.7492 22.3199C43.7374 22.3097 43.7323 22.2957 43.7199 22.2854L36.6669 16.8078V11.1308C36.6669 9.9157 35.6819 8.93062 34.4668 8.93062H26.5191L23.3369 6.45984C22.5508 5.84672 21.4484 5.84672 20.6622 6.45984L17.4793 8.93062H9.53163C8.31656 8.93062 7.33148 9.91562 7.33148 11.1308V16.8079L0.280777 22.2855C0.268315 22.2958 0.263158 22.3098 0.25147 22.32C0.214944 22.3542 0.1822 22.3924 0.153924 22.4337C0.125735 22.4685 0.101155 22.5061 0.0806148 22.5459C0.0628246 22.5866 0.0489018 22.6289 0.0388464 22.6721C0.0235485 22.7198 0.0134931 22.769 0.00876622 22.8188C0.00876622 22.8342 0 22.8474 0 22.8628V47.7999C0.00103132 48.2664 0.151948 48.7201 0.43049 49.0942C0.434873 49.1009 0.435647 49.1089 0.440717 49.1148C0.445874 49.1206 0.456875 49.1272 0.46418 49.1353C0.876192 49.6775 1.51699 49.9971 2.19791 50H41.8006C42.4842 49.9979 43.1277 49.6768 43.5402 49.1317C43.546 49.1244 43.5549 49.1222 43.5599 49.1149C43.5651 49.1076 43.5658 49.1009 43.5703 49.0943C43.8488 48.7201 43.9997 48.2664 44.0007 47.7999V22.8649C44.0007 22.8495 43.9927 22.8362 43.9919 22.8209ZM21.5591 7.61707C21.8153 7.41355 22.1779 7.41355 22.434 7.61707L24.1259 8.93054H19.8723L21.5591 7.61707ZM2.38269 48.5333L21.5592 33.6375C21.8155 33.4343 22.1779 33.4343 22.4341 33.6375L41.6157 48.5333H2.38269ZM42.534 47.3899L23.3369 32.4802C22.5506 31.8676 21.4485 31.8676 20.6622 32.4802L1.46447 47.3899V23.9818L13.4824 33.3141C13.8027 33.5624 14.2635 33.5041 14.5118 33.1839C14.7601 32.8637 14.7018 32.4029 14.3816 32.1546L2.17222 22.6742L7.33157 18.6647V24.3316C7.33157 24.7366 7.65996 25.0649 8.06492 25.0649C8.46997 25.0649 8.79828 24.7365 8.79828 24.3316V11.1307C8.79828 10.7256 9.12658 10.3973 9.53163 10.3973H34.4666C34.8717 10.3973 35.2 10.7256 35.2 11.1307V24.3316C35.2 24.7366 35.5283 25.0649 35.9333 25.0649C36.3384 25.0649 36.6667 24.7365 36.6667 24.3316V18.6647L41.826 22.6742L29.5954 32.1715C29.3851 32.3309 29.2765 32.5912 29.3114 32.8529C29.3463 33.1145 29.5191 33.3373 29.764 33.4361C30.0088 33.5348 30.2879 33.4944 30.4946 33.3302L42.5338 23.9818V47.3899H42.534Z" fill="#CDB26D"/>
<path d="M30.7997 23.5984V20.6648C30.7997 15.8044 26.8596 11.8643 21.9991 11.8643C17.1387 11.8643 13.1985 15.8044 13.1985 20.6648C13.1985 25.5253 17.1387 29.4654 21.9991 29.4654C22.4042 29.4654 22.7325 29.1371 22.7325 28.7321C22.7325 28.327 22.4042 27.9987 21.9991 27.9987C17.9488 27.9987 14.6653 24.7153 14.6653 20.6649C14.6653 16.6146 17.9488 13.3311 21.9991 13.3311C26.0495 13.3311 29.3329 16.6146 29.3329 20.6649V23.5984C29.3329 24.4085 28.6762 25.0652 27.8661 25.0652C27.056 25.0652 26.3993 24.4085 26.3993 23.5984V20.6649C26.3993 20.2599 26.071 19.9316 25.666 19.9316C25.2609 19.9316 24.9326 20.2599 24.9326 20.6649C24.9326 22.2851 23.6192 23.5984 21.9991 23.5984C20.379 23.5984 19.0656 22.2851 19.0656 20.6649C19.0656 19.0448 20.379 17.7314 21.9991 17.7314C22.4042 17.7314 22.7325 17.4031 22.7325 16.9981C22.7325 16.593 22.4042 16.2647 21.9991 16.2647C20.0297 16.2603 18.2972 17.565 17.7575 19.4591C17.2178 21.3531 18.0022 23.3751 19.6781 24.4095C21.354 25.4439 23.513 25.2388 24.9642 23.9073C25.1239 25.4583 26.4719 26.6114 28.0288 26.529C29.5859 26.4465 30.8046 25.1575 30.7997 23.5984Z" fill="#CDB26D"/>
</g>
<defs>
<clipPath id="clip0">
<rect width="50" height="50" fill="white"/>
</clipPath>
</defs>
</svg>
