<svg width="50" height="50" viewBox="0 0 50 50" fill="none" xmlns="http://www.w3.org/2000/svg">
<g clip-path="url(#clip0)">
<path d="M19.8402 26.4918V29.8904C19.8402 30.5743 20.3968 31.1309 21.0807 31.1309H29.047C29.731 31.1309 30.2875 30.5743 30.2875 29.8904V26.4918C30.2875 24.8695 29.2301 23.4904 27.7687 23.0048C28.2524 22.4074 28.5427 21.6476 28.5427 20.8209C28.5427 18.9029 26.9821 17.3423 25.0641 17.3423C23.1456 17.3423 21.5851 18.9029 21.5851 20.8209C21.5851 21.6476 21.8754 22.4074 22.3591 23.0048C20.8976 23.4904 19.8402 24.8698 19.8402 26.4918ZM25.0637 18.8243C26.165 18.8243 27.0607 19.72 27.0607 20.8209C27.0607 21.9173 26.1703 22.8179 25.0622 22.8179C23.962 22.8168 23.0671 21.9215 23.0671 20.8209C23.0671 19.72 23.9628 18.8243 25.0637 18.8243ZM21.3218 26.4918C21.3218 25.283 22.3056 24.2995 23.5145 24.2995H26.6132C27.8221 24.2995 28.8055 25.283 28.8055 26.4918V29.6489H28.0323V26.3869C28.0323 25.9776 27.7004 25.6457 27.2911 25.6457C26.8818 25.6457 26.5503 25.9776 26.5503 26.3869V29.6489H23.5771V26.3869C23.5771 25.9776 23.2456 25.6457 22.8363 25.6457C22.427 25.6457 22.0955 25.9776 22.0955 26.3869V29.6489H21.3218V26.4918Z" fill="#CDB26D"/>
<path d="M19.8402 8.57283V10.8685C19.8402 11.5525 20.3968 12.1091 21.0807 12.1091H29.047C29.731 12.1091 30.2875 11.5525 30.2875 10.8685V8.57283C30.2875 6.95082 29.2301 5.57142 27.7687 5.08581C28.252 4.48843 28.5427 3.72854 28.5427 2.90189C28.5427 1.82195 28.0529 0.820975 27.1991 0.156454C26.876 -0.0949343 26.4106 -0.0373323 26.1593 0.285773C25.9079 0.608878 25.9659 1.07427 26.2886 1.32566C26.7795 1.70751 27.0607 2.28239 27.0607 2.90189C27.0607 4.00129 26.1673 4.89889 25.0629 4.89889C23.9624 4.89851 23.0671 4.00282 23.0671 2.90189C23.0671 2.31786 23.3223 1.76473 23.7678 1.38403C24.0787 1.11814 24.1153 0.650458 23.8495 0.339179C23.5836 0.0282805 23.1159 -0.00834061 22.8046 0.257544C22.0298 0.920158 21.5851 1.88413 21.5851 2.90189C21.5851 3.72854 21.8754 4.48843 22.3591 5.08619C20.8976 5.57142 19.8402 6.95082 19.8402 8.57283ZM21.3218 8.57283C21.3218 7.36395 22.3056 6.38052 23.5145 6.38052C23.5637 6.38052 25.1121 6.38052 25.0637 6.38052H26.6132C27.8221 6.38052 28.8055 7.36395 28.8055 8.57283V10.627H28.0323V8.46754C28.0323 8.05861 27.7008 7.72673 27.2915 7.72673C26.8821 7.72673 26.5503 8.05861 26.5503 8.46754V10.627H23.5771V8.46754C23.5771 8.05861 23.2456 7.72673 22.8363 7.72673C22.427 7.72673 22.0955 8.05861 22.0955 8.46754V10.627H21.3218V8.57283Z" fill="#CDB26D"/>
<path d="M36.3602 18.3913V20.6866C36.3602 21.3705 36.9167 21.9271 37.6007 21.9271H45.5669C46.2509 21.9271 46.8075 21.3705 46.8075 20.6866V18.3913C46.8075 16.7689 45.7504 15.3899 44.289 14.9042C44.7723 14.3065 45.0626 13.547 45.0626 12.7203C45.0626 10.8019 43.502 9.2417 41.584 9.2417C39.666 9.2417 38.1054 10.8023 38.1054 12.7203C38.1054 13.547 38.3957 14.3065 38.879 14.9042C37.4176 15.3899 36.3602 16.7689 36.3602 18.3913ZM41.584 10.7233C42.6849 10.7233 43.5806 11.619 43.5806 12.7203C43.5806 13.8212 42.6849 14.7169 41.584 14.7169C40.4827 14.7169 39.587 13.8212 39.587 12.7203C39.587 11.619 40.4827 10.7233 41.584 10.7233ZM37.8422 18.3913C37.8422 17.1824 38.8256 16.199 40.0345 16.199H43.1332C44.342 16.199 45.3255 17.1824 45.3255 18.3913V20.4455H44.5522V18.286C44.5522 17.877 44.2207 17.5452 43.8114 17.5452C43.4021 17.5452 43.0702 17.877 43.0702 18.286V20.4455H40.097V18.286C40.097 17.877 39.7656 17.5452 39.3562 17.5452C38.9469 17.5452 38.6154 17.877 38.6154 18.286V20.4455H37.8418V18.3913H37.8422Z" fill="#CDB26D"/>
<path d="M3.32025 18.3913V20.6866C3.32025 21.3705 3.87682 21.9271 4.56079 21.9271H12.527C13.211 21.9271 13.7676 21.3705 13.7676 20.6866V18.3913C13.7676 16.7689 12.7101 15.3899 11.2487 14.9042C11.732 14.3065 12.0227 13.547 12.0227 12.7203C12.0227 10.8019 10.4621 9.2417 8.5441 9.2417C6.62569 9.2417 5.06509 10.8023 5.06509 12.7203C5.06509 13.547 5.35539 14.3069 5.8391 14.9042C4.3773 15.3899 3.32025 16.7689 3.32025 18.3913ZM8.54372 10.7233C9.64502 10.7233 10.5407 11.619 10.5407 12.7203C10.5407 13.8212 9.64502 14.7169 8.54372 14.7169C7.4428 14.7169 6.5471 13.8212 6.5471 12.7203C6.5471 11.619 7.4428 10.7233 8.54372 10.7233ZM4.80188 18.3913C4.80188 17.1824 5.78569 16.199 6.99457 16.199H10.0932C11.3021 16.199 12.2856 17.1824 12.2856 18.3913V20.4455H11.5123V18.286C11.5123 17.877 11.1804 17.5452 10.7711 17.5452C10.3618 17.5452 10.0303 17.877 10.0303 18.286V20.4455H7.05713V18.286C7.05713 17.877 6.72563 17.5452 6.31632 17.5452C5.907 17.5452 5.5755 17.877 5.5755 18.286V20.4455H4.80188V18.3913Z" fill="#CDB26D"/>
<path d="M36.3602 37.9253C36.3602 38.6097 36.9167 39.1662 37.6007 39.1662H45.5669C46.2509 39.1662 46.8075 38.6097 46.8075 37.9253V35.63C46.8075 34.0076 45.7504 32.6286 44.289 32.143C44.7723 31.5452 45.0626 30.7857 45.0626 29.9591C45.0626 28.0411 43.502 26.4805 41.584 26.4805C39.666 26.4805 38.1054 28.0411 38.1054 29.9591C38.1054 30.7857 38.3957 31.5452 38.879 32.143C37.4176 32.6286 36.3602 34.0076 36.3602 35.63V37.9253ZM41.584 27.9621C42.6849 27.9621 43.5806 28.8578 43.5806 29.9591C43.5806 31.06 42.6849 31.9557 41.584 31.9557C40.4827 31.9557 39.587 31.06 39.587 29.9591C39.587 28.8578 40.4827 27.9621 41.584 27.9621ZM37.8422 35.63C37.8422 34.4211 38.8256 33.4377 40.0345 33.4377H43.1332C44.342 33.4377 45.3255 34.4211 45.3255 35.63V37.6842H44.5522V35.5247C44.5522 35.1154 44.2207 34.7839 43.8114 34.7839C43.4021 34.7839 43.0702 35.1154 43.0702 35.5247V37.6842H40.097V35.5247C40.097 35.1154 39.7656 34.7839 39.3562 34.7839C38.9469 34.7839 38.6154 35.1154 38.6154 35.5247V37.6842H37.8418V35.63H37.8422Z" fill="#CDB26D"/>
<path d="M3.32025 37.9253C3.32025 38.6097 3.87682 39.1662 4.56079 39.1662H12.527C13.211 39.1662 13.7676 38.6097 13.7676 37.9253V35.63C13.7676 34.0076 12.7101 32.6286 11.2487 32.143C11.732 31.5452 12.0227 30.7857 12.0227 29.9591C12.0227 28.0411 10.4621 26.4805 8.5441 26.4805C6.62569 26.4805 5.06509 28.0411 5.06509 29.9591C5.06509 30.7857 5.35539 31.5452 5.8391 32.143C4.37769 32.6286 3.32025 34.0076 3.32025 35.63V37.9253ZM8.54372 27.9621C9.64502 27.9621 10.5407 28.8578 10.5407 29.9591C10.5407 31.06 9.64502 31.9557 8.54372 31.9557C7.4428 31.9557 6.5471 31.06 6.5471 29.9591C6.5471 28.8578 7.4428 27.9621 8.54372 27.9621ZM4.80188 35.63C4.80188 34.4211 5.78569 33.4377 6.99457 33.4377H10.0932C11.3021 33.4377 12.2856 34.4211 12.2856 35.63V37.6842H11.5123V35.5247C11.5123 35.1154 11.1804 34.7839 10.7711 34.7839C10.3618 34.7839 10.0303 35.1154 10.0303 35.5247V37.6842H7.05713V35.5247C7.05713 35.1154 6.72563 34.7839 6.31632 34.7839C5.907 34.7839 5.5755 35.1154 5.5755 35.5247V37.6842H4.80188V35.63Z" fill="#CDB26D"/>
<path d="M14.484 30.8198C14.6889 31.1746 15.1421 31.2955 15.4961 31.091L16.8362 30.3174C18.5001 32.7519 21.2154 34.414 24.3229 34.6433V36.1875C24.3229 36.5968 24.6548 36.9283 25.0637 36.9283C25.473 36.9283 25.8049 36.5968 25.8049 36.1875V34.6414C28.883 34.4132 31.6181 32.7748 33.2947 30.3193L34.6318 31.091C34.9858 31.2955 35.4389 31.1746 35.6438 30.8198C35.8483 30.4654 35.727 30.0126 35.3726 29.8078L34.0378 29.0372C34.4071 28.2704 34.6829 27.4468 34.8477 26.5786C34.924 26.1765 34.66 25.789 34.2579 25.7127C33.8558 25.6364 33.4683 25.9004 33.392 26.3024C32.6431 30.2487 29.1702 33.1891 25.0637 33.1891C20.3892 33.1891 16.5863 29.3862 16.5863 24.7117C16.5863 20.0372 20.3892 16.2339 25.0637 16.2339C28.1521 16.2339 30.9128 17.904 32.3956 20.4533C32.399 20.4598 32.4021 20.4663 32.4059 20.4728C32.4082 20.4766 32.4108 20.48 32.4131 20.4839C32.8747 21.2853 33.2119 22.1715 33.392 23.121C33.4683 23.523 33.8558 23.7874 34.2579 23.7107C34.66 23.6348 34.924 23.2469 34.8477 22.8448C34.6833 21.9766 34.4071 21.153 34.0378 20.3862L35.3726 19.6156C35.727 19.4108 35.8483 18.9576 35.6438 18.6036C35.4393 18.2488 34.9858 18.1279 34.6318 18.3324L33.2947 19.1041C31.6181 16.6486 28.883 15.0101 25.8049 14.782V13.2359C25.8049 12.827 25.4734 12.4951 25.0641 12.4951C24.6548 12.4951 24.3229 12.827 24.3229 13.2359V14.7797C21.2154 15.0094 18.5005 16.6715 16.8362 19.106L15.4961 18.3324C15.1417 18.1279 14.6885 18.2488 14.484 18.6036C14.2795 18.9576 14.4009 19.4108 14.7552 19.6156L16.0931 20.3881C14.7766 23.108 14.772 26.3059 16.0931 29.0357L14.7552 29.8081C14.4009 30.0126 14.2792 30.4658 14.484 30.8198Z" fill="#CDB26D"/>
<path d="M19.8402 46.4644V48.7593C19.8402 49.4437 20.3968 50.0003 21.0807 50.0003H29.047C29.731 50.0003 30.2875 49.4437 30.2875 48.7593V46.4644C30.2875 44.842 29.2301 43.4626 27.7687 42.977C28.252 42.3796 28.5427 41.6197 28.5427 40.7931C28.5427 38.875 26.9821 37.3145 25.0641 37.3145C23.1456 37.3145 21.5851 38.875 21.5851 40.7931C21.5851 41.6197 21.8754 42.3796 22.3591 42.977C20.8976 43.4626 19.8402 44.842 19.8402 46.4644ZM25.0637 38.7961C26.165 38.7961 27.0607 39.6922 27.0607 40.7931C27.0607 41.8944 26.165 42.7901 25.0637 42.7901C23.9628 42.7901 23.0671 41.8944 23.0671 40.7931C23.0671 39.6922 23.9628 38.7961 25.0637 38.7961ZM21.3218 46.4644C21.3218 45.2555 22.3056 44.2717 23.5145 44.2717H26.6132C27.8221 44.2717 28.8055 45.2555 28.8055 46.4644V48.5182H28.0323V46.3591C28.0323 45.9498 27.7004 45.6179 27.2911 45.6179C26.8818 45.6179 26.5503 45.9498 26.5503 46.3591V48.5182H23.5771V46.3591C23.5771 45.9498 23.2456 45.6179 22.8363 45.6179C22.427 45.6179 22.0955 45.9498 22.0955 46.3591V48.5182H21.3218V46.4644Z" fill="#CDB26D"/>
</g>
<defs>
<clipPath id="clip0">
<rect width="50" height="50" fill="white"/>
</clipPath>
</defs>
</svg>
