<svg width="50" height="50" viewBox="0 0 50 50" fill="none" xmlns="http://www.w3.org/2000/svg">
<path d="M47.4975 15.0002C48.9228 14.9512 50.0404 13.7592 49.9974 12.3337V2.57001C50.0592 1.21966 49.0199 0.072327 47.67 0.000976562H28.9926C27.6427 0.072327 26.6034 1.21966 26.6653 2.57001V12.3337C26.6222 13.7592 27.7398 14.9512 29.1651 15.0002H34.9982V18.3334H28.2943C27.9802 14.8152 25.6053 12.8803 21.2314 12.5553C24.0269 10.9543 24.995 7.39017 23.394 4.5947C21.7929 1.79922 18.2288 0.831037 15.4334 2.4321C12.6379 4.03316 11.6697 7.59725 13.2708 10.3927C13.7865 11.2931 14.533 12.0396 15.4334 12.5553C11.0594 12.8803 8.68371 14.8152 8.37039 18.3334H0.833289C0.373105 18.3334 0 18.7065 0 19.1666V22.4998C0 22.96 0.373105 23.3331 0.833289 23.3331H1.66658V49.1651C1.66658 49.6253 2.03968 49.9984 2.49987 49.9984H47.4975C47.9577 49.9984 48.3308 49.6253 48.3308 49.1651V23.3331H49.1641C49.6243 23.3331 49.9974 22.96 49.9974 22.4998V19.1666C49.9974 18.7065 49.6243 18.3334 49.1641 18.3334H41.6645V15.0002H47.4975ZM14.1659 7.50059C14.1659 5.19956 16.0313 3.33414 18.3324 3.33414C20.6334 3.33414 22.4988 5.19956 22.4988 7.50059C22.4988 9.80161 20.6334 11.667 18.3324 11.667C16.0325 11.6642 14.1686 9.80047 14.1659 7.50059ZM16.8049 14.1669H19.8598C24.1679 14.1669 26.2853 15.4635 26.6136 18.3334H10.0511C10.3795 15.4635 12.4993 14.1669 16.8049 14.1669ZM4.99974 48.3318H3.33316V23.3331H4.99974V48.3318ZM29.9984 48.3318H6.66632V23.3331H29.9984V48.3318ZM46.6642 24.9997H43.3311V26.6663H46.6642V48.3318H31.665V23.3331H46.6642V24.9997ZM48.3308 19.9999V21.6665H1.66658V19.9999H48.3308ZM39.9979 15.0002V18.3334H36.6647V15.0002H39.9979ZM36.6647 13.3336V8.33388H39.9979V13.3336H36.6647ZM40.8312 6.6673H35.8314C35.3713 6.6673 34.9982 7.0404 34.9982 7.50059V13.3336H29.1651C28.6613 13.2831 28.2907 12.8383 28.3318 12.3337V2.57001C28.3318 2.0842 28.6343 1.66756 28.9926 1.66756H47.67C48.0283 1.66756 48.3308 2.0842 48.3308 2.57001V12.3337C48.3719 12.8383 48.0013 13.2831 47.4975 13.3336H41.6645V7.50059C41.6645 7.0403 41.2914 6.6673 40.8312 6.6673Z" fill="#CDB26D"/>
<path d="M41.6645 25H39.9979V26.6666H41.6645V25Z" fill="#CDB26D"/>
<path d="M39.1646 3.33447H37.498V5.00105H39.1646V3.33447Z" fill="#CDB26D"/>
</svg>
