<svg width="16" height="16" fill="none" xmlns="http://www.w3.org/2000/svg"><path d="M15.641 12.645l-2.47-2.471c-.493-.49-1.308-.476-1.817.034l-1.245 1.244-.246-.136c-.786-.436-1.862-1.033-2.994-2.166-1.136-1.135-1.733-2.213-2.17-3l-.134-.24.836-.834.41-.411c.51-.51.524-1.325.033-1.817L3.374.377C2.882-.114 2.067-.1 1.557.41l-.696.7.019.02a4.027 4.027 0 00-.574 1.011c-.134.353-.217.69-.256 1.027-.326 2.705.91 5.177 4.265 8.531 4.637 4.637 8.373 4.287 8.535 4.27a4.176 4.176 0 001.03-.259c.366-.143.71-.338 1.008-.571l.015.013.705-.69c.51-.51.524-1.326.033-1.818z" fill="#CDB26D"/></svg>