<svg width="50" height="50" viewBox="0 0 50 50" fill="none" xmlns="http://www.w3.org/2000/svg">
<path d="M37.035 0H0.732422C0.327683 0 0 0.328064 0 0.732422V4.73633C0 5.14069 0.327683 5.46875 0.732422 5.46875C1.13716 5.46875 1.46484 5.14069 1.46484 4.73633V1.46484H36.3026V48.5352H1.46484V8.1543C1.46484 7.74994 1.13716 7.42188 0.732422 7.42188C0.327683 7.42188 0 7.74994 0 8.1543V49.2676C0 49.6719 0.327683 50 0.732422 50H37.035C37.4397 50 37.7674 49.6719 37.7674 49.2676V0.732422C37.7674 0.328064 37.4397 0 37.035 0Z" fill="#CDB26D"/>
<path d="M33.0894 22.0641C33.4938 22.0641 33.8219 21.736 33.8219 21.3317V9.11739C33.8219 7.89745 32.8293 6.90524 31.6093 6.90524C31.1974 6.90524 30.862 6.56993 30.862 6.15794C30.862 4.93838 29.8698 3.9458 28.6503 3.9458H9.11751C7.89795 3.9458 6.90536 4.93838 6.90536 6.15794C6.90536 6.57031 6.57005 6.90524 6.15807 6.90524C4.93851 6.90524 3.94592 7.89783 3.94592 9.11739V40.8824C3.94592 42.1023 4.93851 43.0945 6.15807 43.0945C6.57043 43.0945 6.90536 43.4298 6.90536 43.8418C6.90536 45.0614 7.89795 46.054 9.11751 46.054H28.6499C29.8698 46.054 30.862 45.0614 30.862 43.8418C30.862 43.4294 31.1974 43.0945 31.6093 43.0945C32.8293 43.0945 33.8215 42.1019 33.8215 40.8824V24.7557C33.8215 24.3514 33.4938 24.0233 33.0891 24.0233C32.6847 24.0233 32.3566 24.3514 32.3566 24.7557V40.8824C32.3566 41.2944 32.0213 41.6297 31.6093 41.6297C30.3898 41.6297 29.3972 42.6219 29.3972 43.8418C29.3972 44.2538 29.0619 44.5891 28.6499 44.5891H9.11751C8.70552 44.5891 8.37021 44.2538 8.37021 43.8418C8.37021 42.6219 7.37801 41.6297 6.15807 41.6297C5.74608 41.6297 5.41077 41.2944 5.41077 40.8824V9.11739C5.41077 8.7054 5.74608 8.37009 6.15807 8.37009C7.37801 8.37009 8.37021 7.37788 8.37021 6.15794C8.37021 5.74596 8.70552 5.41064 9.11751 5.41064H28.6499C29.0623 5.41064 29.3972 5.74596 29.3972 6.15794C29.3972 7.37788 30.3898 8.37009 31.6093 8.37009C32.0213 8.37009 32.3566 8.7054 32.3566 9.11739V21.3317C32.357 21.736 32.6847 22.0641 33.0894 22.0641Z" fill="#CDB26D"/>
<path d="M12.1567 21.2265C12.9467 22.3782 13.9477 23.106 15.0307 23.3334L14.9826 23.4627C14.769 24.036 14.8598 24.6712 15.2252 25.1621L15.588 25.6493C15.6746 25.7656 15.6746 25.9281 15.588 26.0445L15.3526 26.3607C14.8823 26.9924 14.8823 27.8744 15.3526 28.5061L15.588 28.8223C15.6746 28.9387 15.6746 29.1012 15.588 29.2175L15.3526 29.5338C15.1108 29.858 15.1779 30.3169 15.5021 30.5588C15.6338 30.6564 15.7871 30.7037 15.9393 30.7037C16.1629 30.7037 16.3833 30.6019 16.5272 30.4089L16.7629 30.0922C17.2333 29.4609 17.2333 28.5786 16.7629 27.9472L16.5275 27.631C16.4406 27.5147 16.4406 27.3522 16.5272 27.2358L16.7629 26.9196C17.2333 26.2879 17.2333 25.4059 16.7629 24.7746L16.4001 24.287C16.3326 24.1966 16.3158 24.0795 16.3551 23.9739L16.6031 23.3086C17.6071 23.0667 18.536 22.3915 19.2859 21.3467C19.6037 21.5801 19.9436 21.7602 20.2984 21.8826L20.1874 22.1802C19.9737 22.7535 20.0645 23.3887 20.4296 23.8796L20.7927 24.3668C20.8793 24.4831 20.8793 24.6456 20.7927 24.762L20.5574 25.0782C20.087 25.7099 20.087 26.5919 20.5574 27.2236L20.7927 27.5398C20.8793 27.6558 20.8793 27.8187 20.7927 27.935C20.5513 28.2593 20.6184 28.7182 20.9427 28.9597C21.0743 29.0577 21.2276 29.1046 21.3798 29.1046C21.6034 29.1046 21.8239 29.0028 21.9677 28.8097C22.438 28.1784 22.438 27.2961 21.9677 26.6647L21.7323 26.3485C21.6453 26.2322 21.6453 26.0697 21.7319 25.9533L21.9677 25.6371C22.438 25.0054 22.438 24.1234 21.9677 23.4917L21.6049 23.0045C21.5374 22.9141 21.5206 22.797 21.5599 22.6914L21.796 22.057C22.8256 21.9586 23.8518 21.4249 24.7619 20.4971C25.8457 19.3916 26.6296 17.8372 26.9127 16.2315C27.3899 13.5246 25.5756 10.9337 22.8683 10.4565C21.0678 10.1391 19.2398 10.8517 18.1122 12.2555C17.4122 11.8801 16.6126 11.6665 15.7646 11.6665C13.0153 11.6665 10.7792 13.9031 10.7792 16.6523C10.7792 18.2827 11.2812 19.9497 12.1567 21.2265ZM22.6139 11.8992C24.5258 12.2364 25.8072 14.0656 25.4699 15.9771C25.2369 17.2989 24.5975 18.5722 23.7159 19.4714C22.8687 20.335 21.9345 20.7283 21.0838 20.5784C20.705 20.5116 20.3483 20.3388 20.0195 20.063C20.4899 19.0125 20.75 17.8234 20.75 16.6523C20.75 15.2783 20.1916 14.0324 19.2894 13.1298C20.0893 12.1651 21.3615 11.6779 22.6139 11.8992ZM15.7646 13.1317C17.7059 13.1317 19.2856 14.711 19.2856 16.6523C19.2856 19.4225 17.6075 21.9452 15.7646 21.9452C13.9221 21.9452 12.244 19.4225 12.244 16.6523C12.244 14.711 13.8233 13.1317 15.7646 13.1317Z" fill="#CDB26D"/>
<path d="M29.0867 21.1528C29.0867 20.7481 28.7586 20.4204 28.3542 20.4204C27.9495 20.4204 27.6218 20.7481 27.6218 21.1528C27.6218 21.5648 27.2865 21.9001 26.8745 21.9001C26.4698 21.9001 26.1421 22.2278 26.1421 22.6326C26.1421 23.0369 26.4698 23.365 26.8745 23.365C28.0941 23.365 29.0867 22.3724 29.0867 21.1528Z" fill="#CDB26D"/>
<path d="M12.9082 10.4001C12.9082 9.98814 13.2435 9.65283 13.6555 9.65283C14.0599 9.65283 14.3879 9.32477 14.3879 8.92041C14.3879 8.51567 14.0599 8.18799 13.6555 8.18799C12.4356 8.18799 11.4434 9.18019 11.4434 10.4001C11.4434 10.8045 11.771 11.1326 12.1758 11.1326C12.5801 11.1326 12.9082 10.8045 12.9082 10.4001Z" fill="#CDB26D"/>
<path d="M10.3432 20.1665C10.3432 19.7618 10.0155 19.4341 9.61076 19.4341C8.3912 19.4341 7.39862 20.4263 7.39862 21.6458C7.39862 22.0506 7.72668 22.3783 8.13104 22.3783C8.53578 22.3783 8.86346 22.0506 8.86346 21.6458C8.86346 21.2339 9.19878 20.8989 9.61076 20.8989C10.0155 20.8989 10.3432 20.5709 10.3432 20.1665Z" fill="#CDB26D"/>
<path d="M27.269 32.1592H10.5972C10.1925 32.1592 9.86481 32.4872 9.86481 32.8916C9.86481 33.296 10.1925 33.624 10.5972 33.624H27.269C27.6737 33.624 28.0014 33.296 28.0014 32.8916C28.0014 32.4872 27.6737 32.1592 27.269 32.1592Z" fill="#CDB26D"/>
<path d="M28.0014 35.8511C28.0014 35.4467 27.6737 35.1187 27.269 35.1187H10.5972C10.1925 35.1187 9.86481 35.4467 9.86481 35.8511C9.86481 36.2558 10.1925 36.5835 10.5972 36.5835H27.269C27.6737 36.5835 28.0014 36.2558 28.0014 35.8511Z" fill="#CDB26D"/>
<path d="M12.5702 40.0513C12.1658 40.0513 11.8378 40.3793 11.8378 40.7837C11.8378 41.1884 12.1658 41.5161 12.5702 41.5161H25.1972C25.602 41.5161 25.9296 41.1884 25.9296 40.7837C25.9296 40.3793 25.602 40.0513 25.1972 40.0513H12.5702Z" fill="#CDB26D"/>
</svg>
