<svg width="50" height="50" viewBox="0 0 50 50" fill="none" xmlns="http://www.w3.org/2000/svg">
<path d="M25.8928 10.7143C28.8473 10.7143 31.25 8.31161 31.25 5.35714C31.25 2.40268 28.8473 0 25.8928 0C22.9384 0 20.5357 2.40268 20.5357 5.35714C20.5357 8.31161 22.9384 10.7143 25.8928 10.7143ZM25.8928 1.78571C27.8625 1.78571 29.4643 3.3875 29.4643 5.35714C29.4643 7.32679 27.8625 8.92857 25.8928 8.92857C23.9232 8.92857 22.3214 7.32679 22.3214 5.35714C22.3214 3.3875 23.9232 1.78571 25.8928 1.78571Z" fill="#CDB26D"/>
<path d="M21.4286 40.1786C21.4286 42.6402 23.4312 44.6429 25.8928 44.6429C28.3545 44.6429 30.3571 42.6402 30.3571 40.1786C30.3571 37.717 28.3545 35.7144 25.8928 35.7144C23.4312 35.7144 21.4286 37.717 21.4286 40.1786ZM28.5714 40.1786C28.5714 41.6554 27.3696 42.8572 25.8928 42.8572C24.4161 42.8572 23.2143 41.6554 23.2143 40.1786C23.2143 38.7019 24.4161 37.5001 25.8928 37.5001C27.3696 37.5001 28.5714 38.7019 28.5714 40.1786Z" fill="#CDB26D"/>
<path d="M12.5375 12.7561C12.5929 12.9391 12.7045 13.0998 12.8572 13.2141L19.6429 18.3034V24.107H14.4464L15.1188 20.0713L16.7018 18.4882L15.4393 17.2257L13.6536 19.0114C13.5223 19.1427 13.4348 19.3123 13.4045 19.4963L12.6366 24.107H10.7143V25.8927H12.5V33.0356H14.2857V25.8927H37.5V33.0356H39.2857V25.8927H41.0714V24.107H35.7143V16.9641C35.7143 14.5025 33.7116 12.4998 31.25 12.4998H22.592L17.7 9.23823L15.1223 2.36502C14.9625 1.93913 14.508 1.69984 14.0697 1.81323L10.4982 2.70609C10.2616 2.76412 10.0598 2.9177 9.93929 3.13109C9.81876 3.3427 9.79019 3.59538 9.85983 3.82841L12.5375 12.7561ZM13.7295 3.73823L16.1286 10.1356C16.1947 10.3106 16.3143 10.4606 16.4697 10.5641L21.8268 14.1356C21.9723 14.2329 22.1455 14.2856 22.3214 14.2856H31.25C32.7268 14.2856 33.9286 15.4873 33.9286 16.9641V24.107H32.1429V17.857H30.3572V24.107H26.7857V17.857H27.6786V16.0713H24.1072V17.857H25V24.107H21.4286V17.857C21.4286 17.5766 21.2964 17.3114 21.0714 17.1427L14.1634 11.9614L11.8384 4.20966L13.7295 3.73823Z" fill="#CDB26D"/>
<path d="M47.3214 0H35.7143C34.2375 0 33.0357 1.20179 33.0357 2.67857V6.25C33.0357 7.72679 34.2375 8.92857 35.7143 8.92857V11.6071C35.7143 11.9679 35.9321 12.2946 36.2652 12.4321C36.3759 12.4786 36.492 12.5 36.6071 12.5C36.8393 12.5 37.0678 12.4089 37.2384 12.2384L40.5482 8.92857H47.3214C48.7982 8.92857 50 7.72679 50 6.25V2.67857C50 1.20179 48.7982 0 47.3214 0ZM48.2143 6.25C48.2143 6.74286 47.8134 7.14286 47.3214 7.14286H40.1786C39.942 7.14286 39.7143 7.23661 39.5473 7.40446L37.5 9.45179V8.03571C37.5 7.54196 37.1 7.14286 36.6071 7.14286H35.7143C35.2223 7.14286 34.8214 6.74286 34.8214 6.25V2.67857C34.8214 2.18571 35.2223 1.78571 35.7143 1.78571H47.3214C47.8134 1.78571 48.2143 2.18571 48.2143 2.67857V6.25Z" fill="#CDB26D"/>
<path d="M8.92857 21.4287C10.4054 21.4287 11.6071 20.2269 11.6071 18.7501V16.9644C11.6071 15.4876 10.4054 14.2859 8.92857 14.2859V11.6073C8.92857 11.2466 8.71071 10.9198 8.37768 10.7823C8.04286 10.643 7.65893 10.7207 7.40446 10.976L4.09464 14.2859H2.67857C1.20179 14.2859 0 15.4876 0 16.9644V18.7501C0 20.2269 1.20179 21.4287 2.67857 21.4287H8.92857ZM1.78571 18.7501V16.9644C1.78571 16.4716 2.18661 16.0716 2.67857 16.0716H4.46429C4.70089 16.0716 4.92857 15.9778 5.09554 15.81L7.14286 13.7626V15.1787C7.14286 15.6725 7.54286 16.0716 8.03571 16.0716H8.92857C9.42054 16.0716 9.82143 16.4716 9.82143 16.9644V18.7501C9.82143 19.243 9.42054 19.643 8.92857 19.643H2.67857C2.18661 19.643 1.78571 19.243 1.78571 18.7501Z" fill="#CDB26D"/>
<path d="M46.4286 3.57129H36.6071V5.357H46.4286V3.57129Z" fill="#CDB26D"/>
<path d="M30.3571 46.4287H21.4286C19.9518 46.4287 18.75 47.6305 18.75 49.1073V50.0001H20.5357V49.1073C20.5357 48.6144 20.9366 48.2144 21.4286 48.2144H30.3571C30.8491 48.2144 31.25 48.6144 31.25 49.1073V50.0001H33.0357V49.1073C33.0357 47.6305 31.8339 46.4287 30.3571 46.4287Z" fill="#CDB26D"/>
<path d="M37.5 40.1786C37.5 42.6402 39.5027 44.6429 41.9643 44.6429C44.4259 44.6429 46.4286 42.6402 46.4286 40.1786C46.4286 37.717 44.4259 35.7144 41.9643 35.7144C39.5027 35.7144 37.5 37.717 37.5 40.1786ZM41.9643 37.5001C43.4411 37.5001 44.6429 38.7019 44.6429 40.1786C44.6429 41.6554 43.4411 42.8572 41.9643 42.8572C40.4875 42.8572 39.2857 41.6554 39.2857 40.1786C39.2857 38.7019 40.4875 37.5001 41.9643 37.5001Z" fill="#CDB26D"/>
<path d="M46.4286 46.4287H37.5C36.0232 46.4287 34.8214 47.6305 34.8214 49.1073V50.0001H36.6072V49.1073C36.6072 48.6144 37.008 48.2144 37.5 48.2144H46.4286C46.9205 48.2144 47.3214 48.6144 47.3214 49.1073V50.0001H49.1072V49.1073C49.1072 47.6305 47.9054 46.4287 46.4286 46.4287Z" fill="#CDB26D"/>
<path d="M5.35715 40.1786C5.35715 42.6402 7.35983 44.6429 9.82143 44.6429C12.283 44.6429 14.2857 42.6402 14.2857 40.1786C14.2857 37.717 12.283 35.7144 9.82143 35.7144C7.35983 35.7144 5.35715 37.717 5.35715 40.1786ZM12.5 40.1786C12.5 41.6554 11.2982 42.8572 9.82143 42.8572C8.34465 42.8572 7.14286 41.6554 7.14286 40.1786C7.14286 38.7019 8.34465 37.5001 9.82143 37.5001C11.2982 37.5001 12.5 38.7019 12.5 40.1786Z" fill="#CDB26D"/>
<path d="M14.2857 46.4287H5.35713C3.88034 46.4287 2.67856 47.6305 2.67856 49.1073V50.0001H4.46427V49.1073C4.46427 48.6144 4.86517 48.2144 5.35713 48.2144H14.2857C14.7777 48.2144 15.1786 48.6144 15.1786 49.1073V50.0001H16.9643V49.1073C16.9643 47.6305 15.7625 46.4287 14.2857 46.4287Z" fill="#CDB26D"/>
<path d="M35.7143 27.6787H33.9286V29.4644H35.7143V27.6787Z" fill="#CDB26D"/>
<path d="M32.1429 27.6787H30.3571V29.4644H32.1429V27.6787Z" fill="#CDB26D"/>
<path d="M28.5714 27.6787H26.7857V29.4644H28.5714V27.6787Z" fill="#CDB26D"/>
</svg>
