<svg width="50" height="50" fill="none" xmlns="http://www.w3.org/2000/svg"><path d="M47.656 28.125H43.75V17.187a.781.781 0 00-.781-.78h-2.042l2.782-8.348a.782.782 0 00-.74-1.028H39.73l1.628-4.417a.78.78 0 00-.733-1.051H27.344a.782.782 0 00-.72.478l-2.101 4.99h-3.43a.781.781 0 00-.72.48l-3.707 8.895H8.594a.781.781 0 00-.781.782v10.937h-5.47a.781.781 0 00-.78.781v3.125a.781.781 0 00.78.782h.782v14.843a.781.781 0 00.781.782h42.188a.781.781 0 00.781-.782V32.813h.781a.781.781 0 00.782-.782v-3.125a.781.781 0 00-.782-.781zM33.594 31.25h-13.2a12.032 12.032 0 011.706-1.563h11.494v1.563zM5 37.087a12.192 12.192 0 018.398-9.743h9.44a13.66 13.66 0 00-6.947 9.926l-.155 1.011H4.816L5 37.087zm22.44-9.743h1.466v.781h-4.072c.537-.22 1.088-.401 1.651-.542l.954-.24zm1.466-1.563H11.72v-2.343h17.187v2.343zm8.594-1.328v3.672h-1.563v-5.469h.364l1.199 1.797zm1.431-.67l-.753-1.127h.469l1.197 1.797v3.672h-.782v-3.906a.786.786 0 00-.13-.434v-.002zm2.344 0l-.753-1.127h.469l1.197 1.797v3.672h-.782v-3.906a.785.785 0 00-.131-.434v-.002zm.913-2.142l-.132-.197a.781.781 0 00-.65-.35h-6.25a.781.781 0 00-.781.781v6.25h-1.563V17.969h9.376v3.672zm-.304-13.047l-2.603 7.812h-3.004l2.878-7.812h2.73zM27.863 3.125h11.64L34.61 16.406H22.266l5.597-13.281zm-6.25 5.469h2.249l-3.29 7.812H18.36l3.253-7.812zm-4.425 9.375H31.25v10.156h-.781v-5.469a.781.781 0 00-.782-.781h-18.75a.781.781 0 00-.78.781v4.421a17.07 17.07 0 00-.782.488v-9.596h7.813zM3.124 29.687h3.79a13.81 13.81 0 00-1.24 1.563h-2.55v-1.563zm1.631 3.125c-.022.046-.047.09-.069.135v-.135h.07zm-.069 7.032h11.72a.782.782 0 00.771-.663l.257-1.672a12.133 12.133 0 011.777-4.697h12.82v14.063H4.687v-7.031zm40.626 7.031h-11.72V32.812h11.72v14.063zm1.562-15.625H35.156v-1.563h11.719v1.563z" fill="#CDB26D"/><path d="M22.656 18.75h-7.031v1.563h7.031V18.75z" fill="#CDB26D"/></svg>