<svg width="50" height="50" viewBox="0 0 50 50" fill="none" xmlns="http://www.w3.org/2000/svg">
<path d="M43.9062 36.3281C43.8281 36.25 43.8281 36.25 43.75 36.1719C43.75 32.8906 41.7969 29.9219 38.8281 28.4375L36.3281 27.2656L36.6406 27.1094C38.5938 26.1719 39.375 23.8281 38.3594 21.875L37.5 20.0781L36.7969 12.2656C36.3281 6.17187 31.25 1.5625 25.1562 1.5625H24.9219C18.75 1.5625 13.6719 6.17187 13.2031 12.2656L12.5 20.0781L11.6406 21.875C10.7031 23.8281 11.4844 26.1719 13.3594 27.1094L13.6719 27.2656L11.1719 28.4375C8.20313 29.8438 6.25 32.8906 6.25 36.25V48.4375H35.9375C37.0312 48.5938 38.0469 48.2031 38.8281 47.5L45 41.3281C45.7812 40.5469 45.9375 39.2969 45.3125 38.3594L43.9062 36.3281ZM12.8906 24.375C12.6562 23.75 12.7344 23.125 13.0469 22.5781L14.0625 20.5469L14.7656 12.4219C15.1562 7.10937 19.6094 3.125 24.8438 3.125H25.0781C30.3906 3.125 34.7656 7.10937 35.2344 12.4219L35.9375 20.5469L36.9531 22.5781C37.5 23.75 37.0312 25.1563 35.9375 25.7031L34.5312 26.4062L31.0156 24.7656C32.6562 23.125 33.5938 20.9375 33.5938 18.5938V13.9062C33.5938 12.7344 32.6562 11.7188 31.4844 11.5625L28.5937 11.25C27.0312 11.0938 25.7812 9.76562 25.7812 8.125V7.03125H24.2188V8.20312C24.2188 9.84375 22.9688 11.1719 21.4062 11.3281L18.5156 11.6406C17.3438 11.7188 16.4062 12.7344 16.4062 13.9844V18.6719C16.4062 21.0156 17.3437 23.2031 18.9844 24.8438L15.4687 26.4844L14.0625 25.7031C13.5156 25.3906 13.125 24.9219 12.8906 24.375ZM28.125 24.9219L27.4219 25.2344C25.8594 26.0156 24.0625 26.0156 22.5 25.2344L21.875 24.9219C19.4531 23.75 17.9688 21.3281 17.9688 18.6719V13.9844C17.9688 13.5938 18.2812 13.2812 18.6719 13.2031L21.5625 12.8906C22.9688 12.7344 24.2188 12.0312 25 10.8594C25.7812 12.0312 27.0313 12.8125 28.4375 12.8906L31.3281 13.2031C31.7187 13.2031 32.0312 13.5938 32.0312 13.9844V18.6719C32.0312 21.25 30.5469 23.75 28.125 24.9219ZM30.2344 28.5156L27.7344 29.7656C25.9375 30.625 23.9062 30.625 22.1094 29.7656L19.6094 28.5156L20.625 26.0156C20.7812 26.0938 20.9375 26.1719 21.0156 26.25L21.7187 26.5625C23.6719 27.5781 26.0156 27.5781 28.0469 26.5625L28.75 26.25C28.9062 26.1719 29.0625 26.0938 29.1406 26.0156L30.2344 28.5156ZM24.2188 46.875H15.625V38.2812H14.0625V46.875H7.8125V36.1719C7.8125 33.4375 9.375 30.9375 11.875 29.8438L18.9063 26.5625L16.1719 33.2812L21.3281 35L24.2188 40V46.875ZM22.4219 33.75L18.2031 32.3438L19.1406 30L21.4844 31.1719C23.6719 32.2656 26.25 32.2656 28.4375 31.1719L30.7813 30L31.5625 32.0312H29.6875C28.5156 32.0312 27.5 32.9688 27.3438 34.1406L25 38.2812L22.4219 33.75ZM34.375 33.5938C34.8438 33.5938 35.1562 33.9062 35.1562 34.375V36.7188C35.1562 37.1875 34.8438 37.5 34.375 37.5H33.2812L32.0312 38.75L30.7813 37.5H29.6875C29.2188 37.5 28.9062 37.1875 28.9062 36.7188V34.375C28.9062 33.9062 29.2188 33.5938 29.6875 33.5938H34.375ZM25.7812 46.875V40.0781L27.4219 37.2656C27.6562 38.2812 28.5938 39.0625 29.6875 39.0625H30.1562L32.0312 40.9375L33.9063 39.0625H34.375C35.7031 39.0625 36.7188 38.0469 36.7188 36.7188V34.375C36.7188 33.0469 35.7031 32.0312 34.375 32.0312H33.3594L31.1719 26.5625L38.2031 29.8438C40.3906 30.8594 41.875 32.8906 42.1875 35.3125C41.4844 35.2344 40.8594 35.4688 40.3906 36.0156L39.2969 37.1094C38.6719 37.7344 38.4375 38.6719 38.75 39.5312L39.0625 40.4688L37.4219 42.1094L36.4844 41.7969C35.625 41.4844 34.6875 41.7188 34.0625 42.3438L32.8125 43.4375C31.875 44.375 31.875 45.7812 32.8125 46.7188C32.8906 46.7969 32.9688 46.875 33.0469 46.875H25.7812ZM43.8281 40.2344L37.6562 46.4062C37.0312 47.0312 36.0156 47.1094 35.3125 46.6406L33.9844 45.7812C33.5938 45.5469 33.5156 45.0781 33.75 44.6875C33.75 44.6094 33.8281 44.6094 33.8281 44.5312L34.9219 43.4375C35.0781 43.2812 35.2344 43.2031 35.4688 43.2031C35.5469 43.2031 35.625 43.2031 35.7031 43.2812L37.5781 43.9062L40.625 40.8594L40 38.9844C39.9219 38.6719 40 38.3594 40.1562 38.2031L41.25 37.1094C41.4062 36.9531 41.6406 36.875 41.875 36.875C42.1094 36.875 42.3438 37.0312 42.4219 37.1875L43.75 39.2188C44.1406 39.5312 44.1406 39.9219 43.8281 40.2344Z" fill="#CDB26D"/>
</svg>
