<svg width="50" height="50" viewBox="0 0 50 50" fill="none" xmlns="http://www.w3.org/2000/svg">
<g clip-path="url(#clip0)">
<path d="M42.2608 15.2598C42.6651 15.2598 42.9932 14.9317 42.9932 14.5273C42.9932 14.123 42.6651 13.7949 42.2608 13.7949H30.6149C30.2105 13.7949 29.8824 14.123 29.8824 14.5273C29.8824 14.9317 30.2105 15.2598 30.6149 15.2598H42.2608Z" fill="#CDB26D"/>
<path d="M21.8254 42.6055C21.4211 42.6055 21.093 42.9335 21.093 43.3379C21.093 43.7426 21.4211 44.0703 21.8254 44.0703H28.1987C28.603 44.0703 28.9311 43.7426 28.9311 43.3379C28.9311 42.9335 28.603 42.6055 28.1987 42.6055H21.8254Z" fill="#CDB26D"/>
<path d="M7.03088 21.1523V35.2731C7.03088 36.3809 7.9323 37.2823 9.04008 37.2823H40.984C42.0918 37.2823 42.9932 36.3809 42.9932 35.2731V21.1523C42.9932 20.0445 42.0918 19.1431 40.984 19.1431H9.04008C7.9323 19.1431 7.03088 20.0445 7.03088 21.1523ZM41.5283 21.1523V35.2731C41.5283 35.5733 41.2838 35.8175 40.984 35.8175H9.04008C8.73987 35.8175 8.49573 35.5733 8.49573 35.2731V21.1523C8.49573 20.8521 8.73987 20.6079 9.04008 20.6079H40.984C41.2838 20.6079 41.5283 20.8521 41.5283 21.1523Z" fill="#CDB26D"/>
<path d="M44.7369 0H5.28717C3.66402 0 2.34375 1.32027 2.34375 2.94342V13.0623C2.34375 13.4666 2.67181 13.7947 3.07617 13.7947C3.48053 13.7947 3.80859 13.4666 3.80859 13.0623V10.3443H46.2154V39.7625H40.0879C39.6835 39.7625 39.3555 40.0906 39.3555 40.4949C39.3555 40.8997 39.6835 41.2273 40.0879 41.2273H46.2154V43.9701C46.2154 44.7857 45.5521 45.4487 44.7369 45.4487H5.28717C4.47197 45.4487 3.80859 44.7857 3.80859 43.9701V41.2273H37.1582C37.5626 41.2273 37.8906 40.8997 37.8906 40.4949C37.8906 40.0906 37.5626 39.7625 37.1582 39.7625H3.80859V15.992C3.80859 15.5876 3.48053 15.2596 3.07617 15.2596C2.67181 15.2596 2.34375 15.5876 2.34375 15.992V43.9705C2.34375 45.5933 3.66402 46.9139 5.28717 46.9139H5.68619V48.4344C5.68619 49.2977 6.38847 50 7.25174 50H10.4057C11.2686 50 11.9709 49.2977 11.9709 48.4344V46.9139H38.0531V48.4344C38.0531 49.2977 38.7554 50 39.6183 50H42.7723C43.6356 50 44.3378 49.2977 44.3378 48.4344V46.9139H44.7369C46.36 46.9139 47.6803 45.5933 47.6803 43.9705C47.6803 42.0517 47.6803 4.86069 47.6803 2.94342C47.6803 1.32027 46.3596 0 44.7369 0V0ZM10.5061 48.4344C10.5061 48.4901 10.461 48.5352 10.4057 48.5352H7.25174C7.19643 48.5352 7.15103 48.4901 7.15103 48.4344V46.9139H10.5064V48.4344H10.5061ZM42.873 48.4344C42.873 48.4901 42.828 48.5352 42.7723 48.5352H39.6183C39.563 48.5352 39.518 48.4901 39.518 48.4344V46.9139H42.873V48.4344ZM14.3654 7.5119V8.87947H10.2341V7.5119H14.3654ZM39.497 7.5119V8.87947H35.3661V7.5119H39.497ZM40.9618 8.87947V7.5119H41.4848C42.1146 7.5119 42.6273 6.99921 42.6273 6.3694V5.3772C42.6273 4.97284 42.2993 4.64478 41.8949 4.64478C41.4902 4.64478 41.1625 4.97284 41.1625 5.3772V6.04706H33.9935V5.3772C33.9935 4.97284 33.6658 4.64478 33.2611 4.64478C32.8568 4.64478 32.5287 4.97284 32.5287 5.3772V6.3694C32.5287 6.99921 33.0414 7.5119 33.6712 7.5119H33.9012V8.87947H15.8302V7.5119H16.3528C16.9827 7.5119 17.4953 6.99921 17.4953 6.3694V5.3772C17.4953 4.97284 17.1673 4.64478 16.7629 4.64478C16.3582 4.64478 16.0305 4.97284 16.0305 5.3772V6.04706H8.86192V5.3772C8.86192 4.97284 8.53386 4.64478 8.1295 4.64478C7.72476 4.64478 7.39708 4.97284 7.39708 5.3772V6.3694C7.39708 6.99921 7.90939 7.5119 8.5392 7.5119H8.76923V8.87947H3.80859V2.94342C3.80859 2.12822 4.47197 1.46484 5.28717 1.46484H44.7369C45.5521 1.46484 46.2154 2.12822 46.2154 2.94342V8.87947H40.9618Z" fill="#CDB26D"/>
<path d="M9.39676 12.0254C8.01736 12.0254 6.89508 13.1477 6.89508 14.5271C6.89508 15.9065 8.01736 17.0287 9.39676 17.0287C10.7765 17.0287 11.8988 15.9065 11.8988 14.5271C11.8988 13.1477 10.7765 12.0254 9.39676 12.0254ZM9.39676 15.5639C8.82494 15.5639 8.35992 15.0989 8.35992 14.5271C8.35992 13.9552 8.82494 13.4902 9.39676 13.4902C9.96858 13.4902 10.434 13.9552 10.434 14.5271C10.434 15.0989 9.96858 15.5639 9.39676 15.5639Z" fill="#CDB26D"/>
<path d="M18.8671 14.5271C18.8671 13.1477 17.7449 12.0254 16.3651 12.0254C14.9857 12.0254 13.8634 13.1477 13.8634 14.5271C13.8634 15.9065 14.9857 17.0287 16.3651 17.0287C17.7449 17.0287 18.8671 15.9065 18.8671 14.5271ZM15.3282 14.5271C15.3282 13.9552 15.7936 13.4902 16.3651 13.4902C16.9369 13.4902 17.4023 13.9552 17.4023 14.5271C17.4023 15.0989 16.9369 15.5639 16.3651 15.5639C15.7936 15.5639 15.3282 15.0989 15.3282 14.5271Z" fill="#CDB26D"/>
<path d="M25.8354 14.5271C25.8354 13.1477 24.7131 12.0254 23.3333 12.0254C21.9539 12.0254 20.8317 13.1477 20.8317 14.5271C20.8317 15.9065 21.9539 17.0287 23.3333 17.0287C24.7131 17.0287 25.8354 15.9065 25.8354 14.5271ZM22.2965 14.5271C22.2965 13.9552 22.7615 13.4902 23.3333 13.4902C23.9052 13.4902 24.3706 13.9552 24.3706 14.5271C24.3706 15.0989 23.9052 15.5639 23.3333 15.5639C22.7615 15.5639 22.2965 15.0989 22.2965 14.5271Z" fill="#CDB26D"/>
</g>
<defs>
<clipPath id="clip0">
<rect width="50" height="50" fill="white"/>
</clipPath>
</defs>
</svg>
