<svg width="50" height="50" viewBox="0 0 50 50" fill="none" xmlns="http://www.w3.org/2000/svg">
<g clip-path="url(#clip0)">
<path d="M49.9941 32.258C49.9318 31.1406 49.3807 30.1173 48.4819 29.4505C47.0276 28.3714 45.0097 28.4839 43.6842 29.7182L35.6218 37.2268C35.6709 35.5748 34.5851 34.1168 32.9588 33.7042L23.1123 31.2051C21.3857 30.7668 19.5775 30.8259 17.883 31.3761L11.0761 33.586V31.6273C11.0761 31.0881 10.6388 30.6509 10.0996 30.6509H0.976466C0.437208 30.6509 0 31.0882 0 31.6273V49.0216C0 49.5609 0.437305 49.9981 0.976466 49.9981H10.0997C10.639 49.9981 11.0762 49.5608 11.0762 49.0216V35.6394L18.4862 33.2337C19.8295 32.7974 21.2631 32.7508 22.632 33.0979L32.4786 35.5971C33.2433 35.7912 33.7416 36.5019 33.6631 37.2873C33.5821 38.0992 32.9055 38.7116 32.0895 38.7116H24.2494C23.7102 38.7116 23.273 39.1489 23.273 39.6881C23.273 40.2273 23.7103 40.6646 24.2494 40.6646H27.3297C27.3664 40.6688 27.4037 40.6714 27.4415 40.6714H32.2842C33.8995 40.6714 35.44 40.065 36.6222 38.9643L45.0155 31.1474C45.6517 30.5549 46.6204 30.501 47.3186 31.0189C47.7501 31.3389 48.0145 31.8302 48.0444 32.3666C48.0744 32.903 47.8659 33.4205 47.4727 33.7866L35.9102 44.5503C35.1126 45.2927 34.0732 45.7016 32.9836 45.7016H17.8512C17.3119 45.7016 16.8747 46.1389 16.8747 46.678C16.8747 47.2173 17.312 47.6545 17.8512 47.6545H32.9838C34.5688 47.6545 36.0807 47.0597 37.2411 45.9797L48.8033 35.216C49.6223 34.4535 50.0564 33.3754 49.9941 32.258ZM9.12325 48.0451H1.95293V32.6039H9.12316V48.0451H9.12325Z" fill="#CDB26D"/>
<path d="M14.6013 45.9878C14.4197 45.8061 14.1678 45.7017 13.9101 45.7017C13.6531 45.7017 13.4013 45.8061 13.2197 45.9878C13.0381 46.1695 12.9336 46.4214 12.9336 46.6781C12.9336 46.9349 13.038 47.1869 13.2197 47.3684C13.4023 47.55 13.6532 47.6546 13.9101 47.6546C14.1679 47.6546 14.4189 47.5501 14.6013 47.3684C14.7829 47.1868 14.8875 46.9349 14.8875 46.6781C14.8875 46.4214 14.783 46.1694 14.6013 45.9878Z" fill="#CDB26D"/>
<path d="M6.229 44.978C6.04638 44.7964 5.79442 44.6929 5.53769 44.6929C5.28085 44.6929 5.0289 44.7964 4.84735 44.978C4.66571 45.1606 4.56122 45.4126 4.56122 45.6693C4.56122 45.9261 4.66561 46.1772 4.84735 46.3597C5.02997 46.5413 5.28095 46.6458 5.53769 46.6458C5.79452 46.6458 6.04648 46.5413 6.229 46.3597C6.41054 46.178 6.51415 45.9261 6.51415 45.6693C6.51415 45.4115 6.41054 45.1606 6.229 44.978Z" fill="#CDB26D"/>
<path d="M21.2456 0.00195312H20.1849C15.4393 0.00195312 11.5784 3.8628 11.5784 8.60842V11.1456C8.51406 11.4413 6.11005 14.0304 6.11005 17.171C6.11005 20.5092 8.82607 23.2251 12.1643 23.2251H12.5549C13.0941 23.2251 13.5313 22.7878 13.5313 22.2487V8.60842C13.5313 4.93976 16.5161 1.95489 20.1849 1.95489H21.2456C21.7849 1.95489 22.2221 1.51758 22.2221 0.97842C22.2221 0.439161 21.7849 0.00195312 21.2456 0.00195312ZM11.5784 19.5839V21.2304C9.59355 20.9453 8.06308 19.2335 8.06308 17.1709C8.06308 15.1083 9.59355 13.3966 11.5784 13.1115V19.5839Z" fill="#CDB26D"/>
<path d="M25.0396 0.00195312H24.9981C24.4588 0.00195312 24.0216 0.439259 24.0216 0.97842C24.0216 1.51768 24.4589 1.95489 24.9981 1.95489H25.0396C25.5788 1.95489 26.016 1.51758 26.016 0.97842C26.016 0.439161 25.5788 0.00195312 25.0396 0.00195312Z" fill="#CDB26D"/>
<path d="M38.4176 11.1454V8.60842C38.4176 3.8628 34.5568 0.00195312 29.8112 0.00195312H28.7167C28.1775 0.00195312 27.7403 0.439259 27.7403 0.97842C27.7403 1.51768 28.1777 1.95489 28.7168 1.95489H29.8113C33.4799 1.95489 36.4648 4.93966 36.4648 8.60842V24.9834C36.4648 25.3157 36.1945 25.586 35.8623 25.586H28.5938C28.2108 24.6694 27.3052 24.0235 26.2514 24.0235H24.0169C22.6177 24.0235 21.4793 25.1619 21.4793 26.5611V26.5635C21.4793 27.9628 22.6177 29.1011 24.0169 29.1011H26.2514C27.3048 29.1011 28.2101 28.4558 28.5934 27.5387H35.8622C37.2713 27.5387 38.4176 26.3923 38.4176 24.9833V23.1961C41.482 22.9004 43.886 20.3114 43.886 17.1707C43.886 14.0301 41.482 11.4412 38.4176 11.1454ZM26.2514 27.1483H24.0169C23.6945 27.1483 23.4322 26.886 23.4322 26.5636V26.5612C23.4322 26.2387 23.6945 25.9765 24.0169 25.9765H26.2514C26.5739 25.9765 26.8361 26.2388 26.8361 26.5637C26.8361 26.886 26.5739 27.1483 26.2514 27.1483ZM38.4177 21.2304V19.5839V13.1115C40.4026 13.3966 41.9331 15.1083 41.9331 17.1709C41.9331 19.2335 40.4027 20.9453 38.4177 21.2304Z" fill="#CDB26D"/>
<path d="M33.5912 10.8212H32.6799C32.5518 10.429 32.3941 10.048 32.2073 9.67999L32.8517 9.03566C33.0349 8.85245 33.1378 8.60411 33.1378 8.34522C33.1378 8.08634 33.0349 7.8378 32.8517 7.65479L30.6781 5.48125C30.2968 5.0999 29.6786 5.1 29.2971 5.48125L28.6527 6.12549C28.2847 5.93877 27.9037 5.78096 27.5116 5.65303V4.7416C27.5116 4.20234 27.0743 3.76514 26.5351 3.76514H23.461C22.9217 3.76514 22.4845 4.20244 22.4845 4.7416V5.65586C22.0933 5.78399 21.7133 5.9418 21.3463 6.12842L20.6993 5.48135C20.3179 5.1002 19.6999 5.1001 19.3182 5.48135L17.1446 7.65489C16.9615 7.838 16.8585 8.08643 16.8585 8.34532C16.8585 8.60421 16.9615 8.85265 17.1446 9.03575L17.7949 9.68605C17.6093 10.0523 17.4525 10.4313 17.3253 10.8213H16.4051C15.8659 10.8213 15.4286 11.2586 15.4286 11.7978V14.8717C15.4286 15.411 15.866 15.8482 16.4051 15.8482H17.3283C17.4557 16.2372 17.6124 16.6152 17.7979 16.9805L17.1448 17.6336C16.9617 17.8167 16.8587 18.0652 16.8587 18.3241C16.8587 18.5829 16.9617 18.8314 17.1448 19.0145L19.3184 21.1881C19.6999 21.5694 20.3179 21.5694 20.6995 21.1881L21.3526 20.535C21.7178 20.7204 22.0958 20.8773 22.4849 21.0047V21.9278C22.4849 22.467 22.9222 22.9042 23.4614 22.9042H26.5354C27.0747 22.9042 27.5119 22.4669 27.5119 21.9278V21.0076C27.9019 20.8803 28.2809 20.7236 28.6471 20.5379L29.2972 21.1882C29.6787 21.5695 30.2968 21.5695 30.6783 21.1882L32.8519 19.0146C33.035 18.8314 33.138 18.583 33.138 18.3242C33.138 18.0653 33.035 17.8167 32.8518 17.6337L32.2046 16.9865C32.3913 16.6195 32.5491 16.2395 32.6771 15.8483H33.5913C34.1306 15.8483 34.5678 15.411 34.5678 14.8718V11.7979C34.5677 11.2585 34.1305 10.8212 33.5912 10.8212ZM32.6147 13.895H31.9361C31.4772 13.895 31.0769 14.2175 30.9786 14.6649C30.8236 15.3623 30.5496 16.0213 30.1644 16.6236C29.9174 17.0099 29.9722 17.516 30.2967 17.8403L30.7804 18.324L29.9878 19.1165L29.5019 18.6307C29.1782 18.307 28.6729 18.2517 28.2868 18.4977C27.6831 18.8823 27.0233 19.155 26.3255 19.3086C25.8777 19.4073 25.5589 19.8039 25.5589 20.2623V20.951H24.4376V20.2605C24.4376 19.8026 24.1193 19.4062 23.6722 19.3071C22.9753 19.1527 22.3163 18.8793 21.7138 18.4949C21.3277 18.2483 20.8219 18.3033 20.4979 18.6274L20.0086 19.1166L19.2161 18.3241L19.7052 17.8349C20.0292 17.511 20.0845 17.0053 19.8378 16.619C19.4533 16.0165 19.1801 15.3575 19.0257 14.6605C18.9266 14.2133 18.5302 13.8951 18.0723 13.8951H17.3817V12.7742H18.0685C18.5089 12.7742 18.8969 12.4777 19.0128 12.0528C19.0171 12.0374 19.0209 12.0218 19.0244 12.0061C19.178 11.309 19.4506 10.6495 19.835 10.0462C20.081 9.66007 20.0256 9.15489 19.7019 8.83116L19.2161 8.34532L20.0086 7.55274L20.4923 8.03653C20.8166 8.36075 21.3227 8.41573 21.7089 8.16876C22.3079 7.78565 22.9627 7.5126 23.6551 7.35733C24.1013 7.267 24.4376 6.87227 24.4376 6.39961V5.71827H25.5586V6.39239C25.5586 6.84561 25.8758 7.246 26.317 7.34991C26.3213 7.35098 26.3257 7.35196 26.33 7.35284C27.0278 7.50694 27.6878 7.78048 28.2913 8.16563C28.6773 8.41183 29.1831 8.35704 29.507 8.03302L29.9875 7.55264L30.7801 8.34522L30.3011 8.82423C29.9752 9.15021 29.9223 9.66066 30.1697 10.0456C30.5512 10.6443 30.8227 11.2985 30.9772 11.9903C31.0669 12.4373 31.4618 12.7741 31.935 12.7741H32.6144V13.895H32.6147Z" fill="#CDB26D"/>
<path d="M24.9981 9.62402C22.9521 9.62402 21.2875 11.2887 21.2875 13.3347C21.2875 15.3807 22.9521 17.0453 24.9981 17.0453C27.0441 17.0453 28.7088 15.3807 28.7088 13.3347C28.7088 11.2887 27.0441 9.62402 24.9981 9.62402ZM24.9981 15.0924C24.029 15.0924 23.2404 14.3039 23.2404 13.3347C23.2404 12.3655 24.0289 11.577 24.9981 11.577C25.9673 11.577 26.7558 12.3654 26.7558 13.3347C26.7558 14.3038 25.9673 15.0924 24.9981 15.0924Z" fill="#CDB26D"/>
<path d="M5.53817 34.374C4.99891 34.374 4.56171 34.8113 4.56171 35.3505V42.0883C4.56171 42.6276 4.99891 43.0648 5.53817 43.0648C6.07743 43.0648 6.51464 42.6275 6.51464 42.0883V35.3505C6.51464 34.8113 6.07733 34.374 5.53817 34.374Z" fill="#CDB26D"/>
</g>
<defs>
<clipPath id="clip0">
<rect width="50" height="50" fill="white"/>
</clipPath>
</defs>
</svg>
