<svg width="50" height="50" viewBox="0 0 50 50" fill="none" xmlns="http://www.w3.org/2000/svg">
<path d="M47.6562 42.1875H40.2164C42.0018 41.16 43.4851 39.6804 44.5169 37.8974C45.5486 36.1145 46.0925 34.0912 46.0938 32.0312C46.0938 31.824 46.0114 31.6253 45.8649 31.4788C45.7184 31.3323 45.5197 31.25 45.3125 31.25C43.3791 31.2507 41.4758 31.7298 39.7725 32.6446C38.0692 33.5595 36.6187 34.8816 35.5505 36.4932C34.7198 35.237 33.6543 34.153 32.4126 33.3008C34.738 31.4557 36.4679 28.6401 37.4469 25.0827C37.9505 23.2732 38.2307 21.4089 38.2812 19.5312C38.2812 15.6543 34.4261 12.5 29.6875 12.5C29.3381 12.5 28.9906 12.5173 28.6451 12.5519C28.7666 12.2198 28.8471 12.0174 28.8502 12.0088C28.8976 11.8903 28.9152 11.7619 28.9015 11.635C28.8879 11.5081 28.8433 11.3865 28.7717 11.2808C28.7002 11.1751 28.6038 11.0885 28.4911 11.0287C28.3783 10.9688 28.2526 10.9375 28.125 10.9375H4.6875C4.55984 10.9375 4.43413 10.9688 4.32136 11.0286C4.20859 11.0885 4.1122 11.175 4.04062 11.2807C3.96905 11.3864 3.92447 11.5081 3.91078 11.635C3.89709 11.7619 3.91472 11.8903 3.96211 12.0088C3.97715 12.0465 5.46875 15.8041 5.46875 17.9688C5.46875 20.2264 3.93086 30.249 3.91533 30.35C3.90928 30.3893 3.90624 30.429 3.90625 30.4688C3.90732 32.2469 4.37495 33.9936 5.26242 35.5344C6.1499 37.0752 7.42615 38.3562 8.96367 39.2493C8.30384 39.4623 7.7123 39.8464 7.24938 40.3626C6.78646 40.8787 6.46874 41.5085 6.32861 42.1875H2.34375C2.13655 42.1875 1.93784 42.2698 1.79132 42.4163C1.64481 42.5628 1.5625 42.7615 1.5625 42.9688V44.5312C1.56366 45.5669 1.97559 46.5598 2.7079 47.2921C3.44021 48.0244 4.43311 48.4363 5.46875 48.4375H44.5312C45.5669 48.4363 46.5598 48.0244 47.2921 47.2921C48.0244 46.5598 48.4363 45.5669 48.4375 44.5312V42.9688C48.4375 42.7615 48.3552 42.5628 48.2087 42.4163C48.0622 42.2698 47.8634 42.1875 47.6562 42.1875ZM26.4844 42.1875C26.3442 41.5084 26.0265 40.8786 25.5634 40.3624C25.1004 39.8462 24.5088 39.4621 23.8488 39.2492C24.7459 38.7287 25.5582 38.0741 26.2574 37.3081C26.6234 38.0364 27.0649 38.7243 27.5746 39.3603C28.4902 40.4992 29.6094 41.4578 30.8754 42.1875H26.4844ZM44.499 32.8448C44.3203 35.0247 43.444 37.0891 42.0001 38.732C40.5561 40.3748 38.6214 41.5088 36.4824 41.9659L41.1774 37.2709C41.324 37.1244 41.4063 36.9257 41.4063 36.7185C41.4063 36.5113 41.324 36.3125 41.1774 36.166C41.0309 36.0195 40.8322 35.9372 40.625 35.9372C40.4178 35.9372 40.2191 36.0195 40.0726 36.166L35.3774 40.8611C35.8346 38.7222 36.9687 36.7874 38.6117 35.3435C40.2547 33.8996 42.3191 33.0235 44.499 32.8448ZM34.6734 38.0588C34.483 38.4695 34.3167 38.8909 34.1754 39.3209L31.0211 36.1666C30.8746 36.0201 30.6759 35.9378 30.4687 35.9378C30.2614 35.9378 30.0627 36.0201 29.9162 36.1666C29.7697 36.3131 29.6874 36.5118 29.6874 36.719C29.6874 36.9262 29.7697 37.125 29.9162 37.2715L33.7436 41.0988C33.7105 41.3034 33.6829 41.5097 33.6605 41.7176C31.7453 41.1088 30.0521 39.9488 28.7928 38.3827C27.5155 36.8023 26.7486 34.871 26.5938 32.8448C28.2673 32.9758 29.8819 33.5209 31.2923 34.4311C32.7027 35.3413 33.8646 36.5879 34.6734 38.0588ZM27.3513 17.7051C28.0816 17.3604 28.8799 17.1835 29.6875 17.1875C31.8874 17.1875 33.5938 18.4473 33.5938 19.5312C33.5548 21.153 33.2979 22.7622 32.8299 24.3154C32.0128 26.9836 30.6759 28.9023 28.8494 30.0364C28.5884 28.3149 27.3438 20 27.3438 17.9688C27.3438 17.8834 27.3469 17.7948 27.3513 17.7051ZM29.6875 14.0625C33.5645 14.0625 36.7188 16.5158 36.7188 19.5307C36.7188 19.6214 36.6375 28.482 30.9473 32.4445C30.3397 32.1466 29.7074 31.9022 29.0575 31.714C31.5039 30.4427 33.3184 28.0556 34.3237 24.7729C34.8392 23.0719 35.1193 21.3083 35.1562 19.5312C35.1562 17.4139 32.6519 15.625 29.6875 15.625C28.9877 15.6248 28.2916 15.7271 27.6215 15.9286C27.7542 15.3413 27.9201 14.7478 28.0869 14.2062C28.6151 14.1104 29.1507 14.0623 29.6875 14.0625ZM5.46875 30.5273C5.61064 29.6014 7.03125 20.2755 7.03125 17.9688C7.03125 16.2645 6.28965 13.8705 5.80986 12.5H17.9688V19.5312H15.625C15.4178 19.5312 15.2191 19.6136 15.0726 19.7601C14.9261 19.9066 14.8438 20.1053 14.8438 20.3125V26.5625C14.8438 26.7697 14.9261 26.9684 15.0726 27.1149C15.2191 27.2614 15.4178 27.3438 15.625 27.3438H21.875C22.0822 27.3438 22.2809 27.2614 22.4274 27.1149C22.5739 26.9684 22.6562 26.7697 22.6562 26.5625V20.3125C22.6562 20.1053 22.5739 19.9066 22.4274 19.7601C22.2809 19.6136 22.0822 19.5312 21.875 19.5312H19.5312V12.5H27.0027C26.5229 13.8705 25.7812 16.2645 25.7812 17.9688C25.7812 20.2753 27.2017 29.6012 27.3438 30.5273C27.3419 30.802 27.3266 31.0764 27.2988 31.3488C26.7956 31.2834 26.2887 31.2504 25.7812 31.25C25.574 31.25 25.3753 31.3323 25.2288 31.4788C25.0823 31.6253 25 31.824 25 32.0312C25.0016 33.2696 25.1993 34.4998 25.5859 35.6763C24.7833 36.728 23.749 37.5806 22.5635 38.1678C21.3779 38.7551 20.073 39.0612 18.75 39.0625H14.0625C11.7942 39.06 9.61865 38.1618 8.00924 36.5634C6.39982 34.9649 5.48677 32.7956 5.46875 30.5273ZM21.0938 21.0938V25.7812H16.4062V21.0938H21.0938ZM10.1562 40.625H22.6562C23.1407 40.6256 23.6132 40.7761 24.0087 41.0559C24.4043 41.3356 24.7036 41.7309 24.8656 42.1875H7.94688C8.10889 41.7309 8.40821 41.3356 8.80378 41.0559C9.19934 40.7761 9.67176 40.6256 10.1562 40.625ZM46.875 44.5312C46.8743 45.1526 46.6271 45.7483 46.1877 46.1877C45.7483 46.6271 45.1526 46.8743 44.5312 46.875H5.46875C4.84737 46.8743 4.25165 46.6271 3.81227 46.1877C3.37289 45.7483 3.12572 45.1526 3.125 44.5312V43.75H46.875V44.5312Z" fill="#CDB26D"/>
</svg>
