<svg width="50" height="50" viewBox="0 0 50 50" fill="none" xmlns="http://www.w3.org/2000/svg">
<path d="M45.9677 12.9032H40.3226V0H4.83871V12.9032H4.03226C1.809 12.9032 0 14.7122 0 16.9355V41.129C0 43.3523 1.809 45.1613 4.03226 45.1613H14.5161V48.3871H11.2903V50H38.7097V48.3871H35.4839V45.1613H45.9677C48.191 45.1613 50 43.3523 50 41.129V16.9355C50 14.7122 48.191 12.9032 45.9677 12.9032ZM38.7097 19.3548H40.3226V24.1935H38.7097V19.3548ZM37.0968 20.9677H22.5806V19.3548H37.0968V20.9677ZM20.9677 23.8364L16.3606 22.1089C16.222 22.0565 16.129 21.9226 16.129 21.7742C16.129 21.6257 16.222 21.4919 16.3614 21.4395L20.9677 19.712V23.8364ZM22.5806 22.5806H37.0968V24.1935H22.5806V22.5806ZM41.9355 19.3548H42.7419C44.0757 19.3548 45.1613 20.4405 45.1613 21.7742C45.1613 23.1079 44.0757 24.1935 42.7419 24.1935H41.9355V19.3548ZM21.6273 17.7419L15.7951 19.929C15.0308 20.2152 14.5161 20.9571 14.5161 21.7742C14.5161 22.5913 15.0308 23.3331 15.7943 23.6194L21.6273 25.8065H38.7097V33.871H6.45161V8.06452H38.7097V17.7419H21.6273ZM38.7097 1.6129V6.45161H6.45161V1.6129H38.7097ZM4.03226 14.5161H4.83871V35.4839H40.3226V25.8065H42.7419C44.9652 25.8065 46.7742 23.9974 46.7742 21.7742C46.7742 19.5509 44.9652 17.7419 42.7419 17.7419H40.3226V14.5161H45.9677C47.3015 14.5161 48.3871 15.6018 48.3871 16.9355V38.7097H1.6129V16.9355C1.6129 15.6018 2.69854 14.5161 4.03226 14.5161ZM33.871 48.3871H16.129V45.1613H33.871V48.3871ZM45.9677 43.5484H4.03226C2.69854 43.5484 1.6129 42.4627 1.6129 41.129V40.3226H48.3871V41.129C48.3871 42.4627 47.3015 43.5484 45.9677 43.5484Z" fill="#CDB26D"/>
<path d="M8.06451 3.22559H9.67742V4.83849H8.06451V3.22559Z" fill="#CDB26D"/>
<path d="M11.2903 3.22559H12.9032V4.83849H11.2903V3.22559Z" fill="#CDB26D"/>
<path d="M14.5161 3.22559H16.129V4.83849H14.5161V3.22559Z" fill="#CDB26D"/>
<path d="M8.06451 16.1289H17.7419V9.67725H8.06451V16.1289ZM9.67742 11.2901H16.129V14.516H9.67742V11.2901Z" fill="#CDB26D"/>
<path d="M20.1613 9.67725V16.1289H29.8387V9.67725H20.1613ZM28.2258 14.516H21.7742V11.2901H28.2258V14.516Z" fill="#CDB26D"/>
<path d="M8.06451 17.7417H13.7097V19.3546H8.06451V17.7417Z" fill="#CDB26D"/>
<path d="M8.06451 20.9678H12.9032V22.5807H8.06451V20.9678Z" fill="#CDB26D"/>
<path d="M8.06451 24.1934H13.7097V25.8063H8.06451V24.1934Z" fill="#CDB26D"/>
<path d="M8.06451 27.4194H37.0968V29.0323H8.06451V27.4194Z" fill="#CDB26D"/>
<path d="M35.4839 30.645H37.0968V32.2579H35.4839V30.645Z" fill="#CDB26D"/>
<path d="M8.06451 30.645H33.871V32.2579H8.06451V30.645Z" fill="#CDB26D"/>
</svg>
