<svg width="50" height="50" viewBox="0 0 50 50" fill="none" xmlns="http://www.w3.org/2000/svg">
<g clip-path="url(#clip0)">
<path d="M9.08955 9.50991C7.86885 8.70405 6.25977 8.74839 5.08545 9.61997C4.76065 9.86108 4.69277 10.3199 4.93389 10.6446C5.07764 10.8382 5.29863 10.9405 5.52256 10.9405C5.67432 10.9405 5.82735 10.8935 5.9585 10.7961C6.64004 10.2903 7.57393 10.2647 8.28242 10.7324C8.62002 10.9552 9.07432 10.8624 9.29717 10.5248C9.52002 10.1872 9.42705 9.73286 9.08955 9.50991Z" fill="#CDB26D"/>
<path d="M11.3014 6.56011C8.79404 4.78931 5.44033 4.81079 2.95606 6.61343C2.62861 6.85103 2.55586 7.30904 2.79336 7.63648C2.93662 7.83394 3.16006 7.93882 3.38682 7.93882C3.53594 7.93882 3.68643 7.89341 3.81631 7.79908C5.79297 6.3647 8.46143 6.3478 10.4563 7.75669C10.7866 7.98999 11.2437 7.91128 11.4771 7.58101C11.7105 7.25054 11.6317 6.79361 11.3014 6.56011Z" fill="#CDB26D"/>
<path d="M13.4091 3.53848C9.64277 0.887308 4.59609 0.90762 0.851263 3.58916C0.522356 3.82461 0.446673 4.28223 0.68222 4.61104C0.825286 4.81084 1.05009 4.91719 1.27831 4.91719C1.42587 4.91719 1.57499 4.87266 1.70409 4.78018C4.94316 2.46075 9.3082 2.44317 12.5659 4.73633C12.8967 4.96914 13.3537 4.88975 13.5864 4.55899C13.8192 4.22823 13.7398 3.77129 13.4091 3.53848Z" fill="#CDB26D"/>
<path d="M38.308 32.8804H7.72744V13.2593C7.72744 12.8548 7.39951 12.5269 6.99502 12.5269C6.59053 12.5269 6.2626 12.8548 6.2626 13.2593V32.8804H3.08086C1.38203 32.8804 0 34.2624 0 35.9612V42.2238C0 43.6703 1.00215 44.8864 2.34844 45.2161V46.9209C2.34844 47.7564 3.02813 48.4361 3.86367 48.4361H5.4293C6.26484 48.4361 6.94453 47.7564 6.94453 46.9209V45.3049H7.77744C8.18193 45.3049 8.50986 44.977 8.50986 44.5725C8.50986 44.168 8.18203 43.8399 7.77754 43.8399H3.08086C2.18975 43.8399 1.46484 43.1149 1.46484 42.2238V35.9612C1.46484 35.0701 2.18975 34.3452 3.08086 34.3452H38.308C38.7125 34.3452 39.0404 34.0173 39.0404 33.6128C39.0404 33.2082 38.7125 32.8804 38.308 32.8804ZM3.81328 45.3048H5.47969V46.9208H5.47978C5.47978 46.9486 5.45723 46.9712 5.42939 46.9712H3.86367C3.83584 46.9712 3.81328 46.9486 3.81328 46.9208V45.3048Z" fill="#CDB26D"/>
<path d="M46.9191 32.8804H43.7374V13.2593C43.7374 12.8548 43.4095 12.5269 43.005 12.5269C42.6005 12.5269 42.2726 12.8548 42.2726 13.2593V32.8804H41.439C41.0345 32.8804 40.7065 33.2082 40.7065 33.6128C40.7065 34.0173 41.0345 34.3452 41.439 34.3452H46.919C47.8102 34.3452 48.5351 35.0701 48.5351 35.9612V42.2238C48.5351 43.1149 47.8102 43.8399 46.919 43.8399H10.9091C10.5046 43.8399 10.1767 44.1679 10.1767 44.5724C10.1767 44.9769 10.5046 45.3048 10.9091 45.3048H43.0554V46.9208C43.0554 47.7563 43.7351 48.436 44.5706 48.436H46.1362C46.9718 48.436 47.6515 47.7563 47.6515 46.9208V45.216C48.9979 44.8864 50 43.6703 50 42.2238V35.9612C50 34.2624 48.618 32.8804 46.9191 32.8804ZM46.1867 46.9208C46.1867 46.9486 46.1641 46.9712 46.1363 46.9712H44.5707C44.5429 46.9712 44.5203 46.9486 44.5203 46.9208V45.3048H46.1867V46.9208Z" fill="#CDB26D"/>
<path d="M18.7374 36.7944C17.4703 36.7944 16.4394 37.8254 16.4394 39.0925C16.4394 40.3597 17.4703 41.3905 18.7374 41.3905C20.0045 41.3905 21.0355 40.3596 21.0355 39.0925C21.0355 37.8254 20.0045 36.7944 18.7374 36.7944ZM18.7374 39.9258C18.278 39.9258 17.9042 39.552 17.9042 39.0926C17.9042 38.6332 18.278 38.2594 18.7374 38.2594C19.1968 38.2594 19.5706 38.6332 19.5706 39.0926C19.5706 39.552 19.1968 39.9258 18.7374 39.9258Z" fill="#CDB26D"/>
<path d="M31.2626 36.7944C29.9955 36.7944 28.9645 37.8254 28.9645 39.0925C28.9645 40.3597 29.9955 41.3905 31.2626 41.3905C32.5297 41.3905 33.5606 40.3596 33.5606 39.0925C33.5606 37.8254 32.5297 36.7944 31.2626 36.7944ZM31.2626 39.9258C30.8032 39.9258 30.4294 39.552 30.4294 39.0926C30.4294 38.6332 30.8032 38.2594 31.2626 38.2594C31.722 38.2594 32.0958 38.6332 32.0958 39.0926C32.0958 39.552 31.722 39.9258 31.2626 39.9258Z" fill="#CDB26D"/>
<path d="M25 36.7944C23.7328 36.7944 22.7019 37.8254 22.7019 39.0925C22.7019 40.3597 23.7329 41.3905 25 41.3905C26.2671 41.3905 27.298 40.3596 27.298 39.0925C27.298 37.8253 26.2672 36.7944 25 36.7944ZM25 39.9257C24.5406 39.9257 24.1668 39.552 24.1668 39.0925C24.1668 38.6331 24.5406 38.2593 25 38.2593C25.4593 38.2593 25.8332 38.6331 25.8332 39.0925C25.8332 39.5519 25.4593 39.9257 25 39.9257Z" fill="#CDB26D"/>
<path d="M45.0994 9.50991C43.8788 8.70405 42.2697 8.74839 41.0954 9.61997C40.7706 9.86108 40.7027 10.3199 40.9438 10.6446C41.0876 10.8382 41.3086 10.9405 41.5325 10.9405C41.6843 10.9405 41.8373 10.8935 41.9684 10.7961C42.6499 10.2903 43.5838 10.2647 44.2923 10.7324C44.6299 10.9552 45.0842 10.8624 45.307 10.5248C45.5299 10.1872 45.4369 9.73286 45.0994 9.50991Z" fill="#CDB26D"/>
<path d="M47.3113 6.56014C44.804 4.78934 41.4503 4.81073 38.9659 6.61346C38.6385 6.85106 38.5657 7.30907 38.8032 7.63651C38.9465 7.83397 39.1699 7.93885 39.3967 7.93885C39.5458 7.93885 39.6963 7.89344 39.8262 7.79911C41.8029 6.36483 44.4713 6.34784 46.4662 7.75673C46.7966 7.98993 47.2537 7.91122 47.487 7.58094C47.7204 7.25057 47.6417 6.79364 47.3113 6.56014Z" fill="#CDB26D"/>
<path d="M49.4191 3.53847C45.6527 0.887296 40.6061 0.907609 36.8613 3.58925C36.5324 3.8247 36.4567 4.28232 36.6923 4.61112C36.8352 4.81083 37.0601 4.91718 37.2884 4.91718C37.436 4.91718 37.585 4.87265 37.7141 4.78017C40.9531 2.46083 45.3181 2.44316 48.576 4.73632C48.9067 4.96913 49.3637 4.88974 49.5965 4.55898C49.8293 4.22821 49.7499 3.77128 49.4191 3.53847Z" fill="#CDB26D"/>
</g>
<defs>
<clipPath id="clip0">
<rect width="50" height="50" fill="white"/>
</clipPath>
</defs>
</svg>
