<svg width="12" height="12" viewBox="0 0 12 12" fill="none" xmlns="http://www.w3.org/2000/svg">
<g clip-path="url(#clip0)">
<path d="M11.3846 0.703857H7.64323C7.30355 0.703857 7.02787 0.97954 7.02787 1.31922V5.06062C7.02787 5.40031 7.30355 5.67598 7.64323 5.67598H9.43394C9.41056 6.65565 9.18287 7.43961 8.75212 8.02912C8.41244 8.49434 7.89801 8.87956 7.21002 9.18354C6.89372 9.32262 6.75711 9.69676 6.9048 10.0094L7.34786 10.9447C7.49062 11.245 7.84384 11.3767 8.14906 11.245C8.9638 10.893 9.65179 10.4475 10.213 9.90598C10.8973 9.24508 11.3662 8.49926 11.6197 7.66729C11.8733 6.83532 12 5.7006 12 4.26065V1.31922C12 0.979552 11.7243 0.703857 11.3846 0.703857Z" fill="#CDB26D"/>
<path d="M1.30502 11.2425C2.10992 10.8918 2.7942 10.4463 3.3591 9.90598C4.04954 9.24508 4.5209 8.50172 4.77443 7.67591C5.02796 6.85009 5.15471 5.71167 5.15471 4.26065V1.31922C5.15471 0.97954 4.87904 0.703857 4.53935 0.703857H0.797953C0.458273 0.703857 0.182591 0.97954 0.182591 1.31922V5.06062C0.182591 5.40031 0.458273 5.67598 0.797953 5.67598H2.58865C2.56527 6.65565 2.33759 7.43961 1.90683 8.02913C1.56715 8.49434 1.05271 8.87956 0.364738 9.18355C0.0484425 9.32262 -0.0881678 9.69676 0.059519 10.0094L0.501349 10.9423C0.644125 11.2425 0.999804 11.3755 1.30502 11.2425Z" fill="#CDB26D"/>
</g>
<defs>
<clipPath id="clip0">
<rect width="12" height="12" fill="white"/>
</clipPath>
</defs>
</svg>
