<svg width="117" height="50" fill="none" xmlns="http://www.w3.org/2000/svg"><g clip-path="url(#clip0)"><path d="M43.593 15.088c5.48 0 9.992 4.414 9.992 9.952 0 5.458-4.432 9.952-9.992 9.952-5.48 0-9.992-4.414-9.992-9.952s4.513-9.952 9.992-9.952zm0 34.912l10.314-15.73c1.612-2.73 3.546-5.699 3.546-9.31 0-7.705-6.125-13.804-13.86-13.804-7.736 0-13.86 6.1-13.86 13.804 0 3.45 1.934 6.42 3.385 8.989L43.593 50z" fill="#CDB26D"/><path d="M63.496 23.194c.322-2.006 1.29-3.692 2.74-5.216 1.933-1.927 4.27-2.89 7.09-2.89 2.74 0 5.077.963 6.93 2.81h4.915c-.564-.964-1.289-1.847-2.095-2.65-2.659-2.728-5.962-4.012-9.75-4.012-3.787 0-7.09 1.364-9.75 4.093-2.659 2.648-4.029 5.94-4.029 9.711 0 .642 0 1.204.081 1.846h23.529c-.322 1.926-1.29 3.692-2.74 5.217-1.933 1.926-4.27 2.889-7.09 2.889-2.66 0-4.996-.963-6.93-2.809H61.4c.564.963 1.29 1.846 2.095 2.648 2.74 2.73 5.963 4.094 9.75 4.094 3.868 0 7.09-1.365 9.75-4.093 2.74-2.73 4.11-5.94 4.11-9.712 0-.642 0-1.204-.081-1.846H63.496v-.08zm29.814 0c.322-2.006 1.29-3.692 2.74-5.216 1.934-1.927 4.27-2.89 7.09-2.89 2.74 0 5.077.963 6.93 2.81h4.916c-.565-.964-1.29-1.847-2.095-2.65-2.74-2.728-5.963-4.092-9.751-4.092-3.787 0-7.09 1.364-9.75 4.093-2.659 2.648-4.028 5.939-4.028 9.71 0 .643 0 1.205.08 1.847H112.891c-.323 1.926-1.29 3.692-2.74 5.216-1.934 1.927-4.271 2.89-7.091 2.89-2.659 0-4.996-.963-6.93-2.81h-4.996c.564.964 1.29 1.847 2.095 2.65 2.74 2.728 5.963 4.092 9.75 4.092 3.868 0 7.091-1.364 9.75-4.093 2.74-2.728 4.11-5.939 4.11-9.71 0-.643 0-1.205-.081-1.847H93.31zM3.626 0v15.65c.161-.16.322-.24.403-.401 2.74-2.729 5.963-4.093 9.75-4.093s7.09 1.364 9.75 4.093c2.74 2.728 4.11 5.939 4.11 9.71 0 3.773-1.37 7.064-4.11 9.712-2.66 2.729-5.963 4.093-9.75 4.093s-7.091-1.364-9.75-4.093C1.45 32.103.08 28.973 0 25.36v-.32V0h3.626zm10.153 15.088c-2.74 0-5.077.963-7.091 2.89-1.934 1.926-2.9 4.253-2.9 6.982s.966 5.056 2.98 6.982c1.934 1.926 4.271 2.89 7.01 2.89 2.74 0 5.077-.964 7.092-2.89 1.934-2.006 2.9-4.334 2.9-6.982 0-2.729-.966-5.056-2.9-6.983-1.934-1.926-4.27-2.889-7.091-2.889z" fill="#1A1919"/><path d="M113.938 46.63c-.242.16-.403.48-.483.721h2.82c-.081-.32-.242-.561-.484-.722a1.336 1.336 0 00-.967-.401c-.322 0-.644.16-.886.401zM117 47.752c0 .16-.081.24-.161.24h-3.384c.08.402.161.723.402.964.242.32.645.481 1.048.481s.725-.08.886-.24c.242-.161.323-.402.403-.643 0-.08.081-.16.161-.16h.403c.081 0 .161.16.081.24-.161.482-.403.803-.725 1.044-.323.24-.726.401-1.209.401-.564 0-1.128-.24-1.531-.642a2.188 2.188 0 01-.645-1.525c0-.642.242-1.123.645-1.525.403-.4.886-.642 1.45-.642.645 0 1.128.321 1.531.723.403.24.645.802.645 1.284zm-11.362-1.686c.323.321.484.803.484 1.285v.24c0 .08-.081.16-.161.16h-.242a.173.173 0 01-.161-.16v-.24c0-.321-.081-.642-.322-.883-.242-.241-.484-.321-.806-.321-.323 0-.645.16-.806.32-.242.241-.322.482-.322.883v2.328c0 .08-.081.16-.162.16h-.241a.173.173 0 01-.161-.16v-3.852c0-.08.08-.16.161-.16h.241c.081 0 .162.08.162.16v.16c.08-.08.161-.16.322-.24.242-.161.564-.241.886-.241.323.08.806.24 1.128.561zm-10.555 1.525h.241c.081 0 .162.08.162.16v.482c0 .482-.162.963-.484 1.204-.322.321-.725.482-1.209.482-.483 0-.967-.16-1.208-.482-.323-.32-.484-.722-.484-1.204v-3.21c0-.08.08-.16.161-.16h.242c.08 0 .161.08.161.16v.642h2.498c.08 0 .161.08.161.16v.241c0 .08-.08.16-.16.16h-2.499v1.927c0 .321.08.562.323.803.16.16.483.32.805.32.323 0 .564-.08.806-.32.161-.16.322-.482.322-.803v-.481s.081-.08.162-.08zm-10.637-1.525c.323.321.484.803.484 1.285v2.327c0 .08-.08.16-.161.16h-.242c-.08 0-.161-.08-.161-.16v-2.328c0-.4-.08-.642-.323-.882a1.234 1.234 0 00-.805-.321c-.323 0-.645.16-.887.32-.242.241-.322.482-.322.803V49.6c0 .08-.08.16-.161.16h-.242c-.08 0-.161-.08-.161-.16v-3.853c0-.08.08-.16.161-.16h.242c.08 0 .16.08.16.16v.16c.081-.08.243-.16.323-.24.242-.16.564-.24.887-.24.483.16.886.32 1.208.641zm-13.053.562c-.242.16-.403.482-.484.723h2.82c-.08-.321-.241-.562-.483-.723a1.337 1.337 0 00-.967-.401c-.322 0-.645.16-.886.401zm3.061 1.124c0 .16-.08.24-.16.24h-3.385c0 .402.161.723.403.964.242.32.645.481 1.047.481.403 0 .726-.08.887-.24.242-.161.322-.402.403-.643 0-.08.08-.16.16-.16h.403c.081 0 .162.16.081.24-.16.482-.403.803-.725 1.044-.322.24-.725.401-1.209.401-.563 0-1.128-.24-1.53-.642a2.188 2.188 0 01-.645-1.525c0-.642.242-1.123.645-1.525.402-.4.886-.642 1.45-.642.645 0 1.128.321 1.53.723.404.24.645.802.645 1.284zm-11.361.562h.402c.081 0 .162.16.081.24-.16.402-.403.803-.725 1.044-.322.24-.725.401-1.208.401-.565 0-1.129-.24-1.45-.642a2.188 2.188 0 01-.645-1.525c0-.642.241-1.123.644-1.525.403-.401.886-.642 1.45-.642.484 0 .887.16 1.21.401.322.241.563.562.724 1.044v.08c0 .08-.08.16-.16.16h-.323c-.08 0-.161-.08-.161-.08-.08-.24-.323-.481-.484-.642a1.365 1.365 0 00-.805-.24c-.403 0-.806.16-1.048.481-.242.321-.403.642-.403 1.124 0 .4.161.802.403 1.123.242.24.645.482 1.048.482.322 0 .564-.08.805-.241.242-.16.403-.401.484-.642 0-.321.08-.401.161-.401z" fill="#3E3D3D"/></g><defs><clipPath id="clip0"><path fill="#fff" d="M0 0h117v50H0z"/></clipPath></defs></svg>