<svg width="30" height="42" viewBox="0 0 30 42" fill="none" xmlns="http://www.w3.org/2000/svg">
<path d="M14.1656 38.5511L14.998 39.8115L15.8332 38.5529L25.5076 23.9744L25.5207 23.9548L25.5328 23.9346C25.6451 23.7467 25.7606 23.5555 25.8781 23.3609C27.2924 21.0193 29 18.1922 29 14.7934C29 7.08556 22.7929 1 15 1C7.20706 1 1 7.08557 1 14.7934C1 17.9527 2.60817 20.707 3.87872 22.883C4.02684 23.1367 4.17037 23.3825 4.30623 23.6202L4.32223 23.6482L4.34 23.6751L14.1656 38.5511ZM15 6.64463C19.6077 6.64463 23.3721 10.3081 23.3721 14.8678C23.3721 19.3635 19.6727 23.0909 15 23.0909C10.3923 23.0909 6.62791 19.4275 6.62791 14.8678C6.62791 10.3081 10.3923 6.64463 15 6.64463Z" fill="#CDB26D" stroke="#EBEBEB" stroke-width="2"/>
</svg>
