<svg width="12" height="12" viewBox="0 0 12 12" fill="none" xmlns="http://www.w3.org/2000/svg">
<g clip-path="url(#clip0)">
<path d="M0.615322 11.2961L4.35674 11.2961C4.69642 11.2961 4.9721 11.0205 4.9721 10.6808L4.9721 6.93938C4.9721 6.59969 4.69642 6.32402 4.35674 6.32402L2.56603 6.32402C2.58941 5.34435 2.8171 4.56039 3.24785 3.97088C3.58753 3.50566 4.10196 3.12045 4.78995 2.81646C5.10625 2.67738 5.24286 2.30325 5.09518 1.99063L4.65211 1.05528C4.50935 0.754994 4.15613 0.623295 3.85091 0.754994C3.03617 1.10698 2.34818 1.5525 1.78698 2.09402C1.10268 2.75492 0.633784 3.50074 0.380253 4.33271C0.126711 5.16468 -4.24785e-05 6.2994 -4.26044e-05 7.73935L-4.28615e-05 10.6808C-4.28912e-05 11.0204 0.275653 11.2961 0.615322 11.2961Z" fill="#CDB26D"/>
<path d="M10.695 0.757454C9.89008 1.10821 9.2058 1.55372 8.6409 2.09402C7.95046 2.75492 7.4791 3.49828 7.22557 4.32409C6.97204 5.14991 6.84529 6.28833 6.84529 7.73935L6.84529 10.6808C6.84529 11.0205 7.12096 11.2961 7.46065 11.2961L11.202 11.2961C11.5417 11.2961 11.8174 11.0205 11.8174 10.6808L11.8174 6.93938C11.8174 6.59969 11.5417 6.32402 11.202 6.32402L9.41135 6.32402C9.43473 5.34435 9.66241 4.56039 10.0932 3.97087C10.4328 3.50566 10.9473 3.12044 11.6353 2.81645C11.9516 2.67738 12.0882 2.30324 11.9405 1.99063L11.4987 1.05774C11.3559 0.757454 11.0002 0.624524 10.695 0.757454Z" fill="#CDB26D"/>
</g>
<defs>
<clipPath id="clip0">
<rect width="12" height="12" fill="white" transform="translate(12 12) rotate(-180)"/>
</clipPath>
</defs>
</svg>
